<?xml version="1.0" encoding="utf-8"?>
<!-- Generator: Adobe Illustrator 27.5.0, SVG Export Plug-In . SVG Version: 6.00 Build 0)  -->
<svg version="1.1" xmlns="http://www.w3.org/2000/svg" xmlns:xlink="http://www.w3.org/1999/xlink" x="0px" y="0px"
	 viewBox="0 0 2200 2200" style="enable-background:new 0 0 2200 2200;" xml:space="preserve">
<g id="background">
	<rect style="fill:#FFFFFF;" width="2200" height="2200"/>
</g>
<g id="Objects">
	<g>
		<g>
			<path style="fill:#EFB118;" d="M1718.009,1032.497v-0.001c-4.303-68.832-19.132-134.254-44.076-194.454
				c-25.88-62.423-63.092-118.668-110.6-167.176c-46.439-47.409-101.116-86.52-162.513-116.244
				c-53.412-25.85-113.828-45.332-179.572-57.905c-51.146-9.777-96.907-14.53-139.893-14.53c-0.097,0-0.197,0-0.295,0
				c-48.657,0.024-96.623,6.655-142.561,19.708c-55.088,15.638-108.362,41.335-158.345,76.377
				c-58.509,41.029-112.13,93.656-155.065,152.192c-38.527,52.524-70.475,114.383-94.954,183.859
				c-24.756,70.251-39.564,137.259-44.015,199.159c-4.494,62.382,2.226,125.901,19.971,188.795
				c16.982,60.198,43.672,117.654,79.326,170.769c35.615,53.081,78.528,99.063,127.548,136.668
				c51.136,39.217,109.019,69.22,172.038,89.174c60.384,19.133,123.729,28.821,188.389,28.821c1.722,0,3.456-0.007,5.18-0.021
				c65.275-0.517,130.208-11.1,192.999-31.454c59.783-19.396,116.775-47.977,169.393-84.948
				c51.188-35.968,97.119-79.089,136.515-128.167c39.922-49.743,71.943-104.15,95.178-161.709
				c11.348-28.122,20.761-57.641,27.983-87.771C1716.347,1167.198,1722.19,1099.524,1718.009,1032.497z M1390.563,575.812
				c58.945,28.539,111.416,66.062,155.951,111.527c36.131,36.891,66.02,78.467,89.183,123.965
				c-14.367-26.607-31.154-51.919-50.212-75.7c-40.14-50.08-89.18-92.65-143.84-126.21c-51.81-31.8-108.43-55.48-166.61-72.85
				c-43.49-12.98-87.99-23.09-133.18-27.72c-2.477-0.254-4.957-0.481-7.437-0.699c25.969,2.265,53.263,6.143,82.408,11.715
				C1280.55,532.026,1339.004,550.858,1390.563,575.812z M1128.696,668.794c-16.02,13.68-33.51,28.42-52.08,43.77
				c-0.07,0.07-0.16,0.12-0.25,0.16c-35.51,15.78-74.8,31.86-115.93,48.39c-1.25,0.5-2.1-1.28-0.93-1.94
				c62.44-35.41,122.46-67.93,167.98-92.15C1128.626,666.414,1129.676,667.954,1128.696,668.794z M1142.736,830.714
				c-15.34,9.87-31.13,20.3-47.39,31.28c-0.06,0.04-0.12,0.08-0.19,0.1c-0.74,0.3-1.48,0.6-2.22,0.9c-1.23,0.5-2.1-1.24-0.96-1.93
				C1109.596,850.424,1126.516,840.304,1142.736,830.714z M1090.576,1406.844c21.07-19.03,42.83-38.69,65.01-58.49
				c0.09-0.08,0.18-0.14,0.28-0.18c9.32-4.24,18.72-8.45,28.19-12.63c1.13-0.5,2.08,1,1.14,1.81
				c-40.55,35.08-79.65,70.45-114.63,102.1c-22.59,20.43-44.39,40.15-64.18,57.62c-0.04,0.04-0.08,0.07-0.13,0.1l-61.22,39.74
				c-1.13,0.74-2.3-0.88-1.24-1.72c0.07-0.06,0.14-0.12,0.21-0.17C985.066,1502.174,1036.316,1455.874,1090.576,1406.844z
				 M1178.356,1141.814c-1.24,0.49-2.09-1.27-0.94-1.94l263.25-151.99c1.15-0.65,2.25,0.91,1.24,1.76
				c-21.13,17.76-44.44,37.11-69.34,57.44c-0.04,0.04-0.09,0.07-0.13,0.09c-28.48,16.76-58.73,34.55-90.03,52.92
				c-0.05,0.03-0.09,0.05-0.14,0.07C1248.476,1114.074,1213.446,1128.004,1178.356,1141.814z M1366.526,826.114
				c1.89-1.4,3.76-2.77,5.59-4.14c0.05-0.03,0.1-0.06,0.15-0.09c19.51-10.23,36.99-19.32,51.92-27.06c0.12-0.05,0.24-0.09,0.36-0.11
				c6.02-0.8,11.45-1.2,16.34-1.3c1.24-0.03,1.53,1.72,0.36,2.1C1420.636,802.254,1396.086,812.094,1366.526,826.114z
				 M1426.196,1157.554l28.55-18.21c0.02-0.01,0.04-0.02,0.06-0.04c2.23-1.22,4.45-2.42,6.64-3.61c0.04-0.03,0.09-0.05,0.14-0.07
				c32.58-11.9,61.93-22.2,86.43-30.6c1.27-0.44,2.04,1.38,0.83,1.98c-8.6,4.31-19.19,9.33-32.22,15.13
				c-10.79,4.81-22.51,9.85-34.98,15.08c-0.03,0.01-0.06,0.02-0.08,0.03c-14.08,4.56-28.97,10.67-44.76,18.35
				c-0.03,0.01-0.05,0.02-0.07,0.03c-3.16,1.27-6.34,2.55-9.56,3.84C1425.966,1159.954,1425.086,1158.264,1426.196,1157.554z
				 M793.67,597.548c47.82-33.526,98.711-58.089,151.263-73.007c43.851-12.46,89.654-18.79,136.14-18.813c0.097,0,0.188,0,0.284,0
				c16.417,0,33.288,0.735,50.75,2.198c-42.776-3.568-85.867-1.813-128.18,5.538c-55.63,9.65-109.25,29.47-158.62,56.73
				c-60.71,33.53-117.01,78.2-163.79,129.39c-19.204,21.014-36.794,43.47-52.888,66.974c5.024-7.565,10.163-14.97,15.444-22.17
				C685.509,687.897,737.239,637.12,793.67,597.548z M846.656,1276.654c12.75-2.15,23.56-3.46,21.26-2.39
				c-1.28,0.59-7.53,2-14.41,3.34c-6.73,1.59-14.1,3.27-23.21,5.1c-12.72,2.57-29.81,5.54-36.85,6.21
				c-8.64,0.82,2.3-2.11,16.19-5.11C820.386,1281.484,833.896,1278.804,846.656,1276.654z M819.126,1048.164
				c0.14-0.12,0.29-0.23,0.43-0.35c0.08-0.06,0.16-0.12,0.26-0.16c0.13-0.05,0.25-0.1,0.38-0.16c1.23-0.51,2.12,1.21,0.99,1.91
				c-0.27,0.17-0.54,0.34-0.82,0.51C819.216,1050.634,818.076,1049.014,819.126,1048.164z M783.476,899.704
				c-1.15,1.54-6.61,2.81-12.6,3.32c-5.88,1.67-12.32,3.21-20.26,4.15c-11.09,1.32-25.96,1.08-32.04-1.32
				c-7.46-2.96,2.12-7.12,14.24-9.38c9.39-1.75,21.16-2.97,32.26-2.52C776.156,894.404,785.516,896.934,783.476,899.704z
				 M620.016,1166.864c0.54-1.55,1.77-4.18,4.53-7.9c0.08-0.1,0.17-0.19,0.28-0.26c3.42-2.27,7.25-4.8,11.45-7.58
				c0.14-0.09,0.3-0.15,0.47-0.17c11-1.21,22.77-4.11,35.47-8.77c1.21-0.45,2.04,1.22,0.95,1.92c-11.75,7.47-22.6,14.4-32.45,20.68
				c-0.1,0.06-0.2,0.11-0.31,0.14c-10.81,2.92-17.33,3.42-20.81,3.36C619.676,1167.874,619.816,1167.424,620.016,1166.864z
				 M1650.825,1312.599c-22.371,55.424-53.227,107.838-91.706,155.785c-38.008,47.348-82.314,88.947-131.69,123.641
				c-50.693,35.62-105.575,63.147-163.12,81.816c-60.5,19.612-123.053,29.809-185.923,30.307c-1.668,0.014-3.326,0.02-4.991,0.02
				c-62.237,0-123.206-9.32-181.282-27.722c-60.407-19.127-115.861-47.864-164.818-85.411
				c-46.983-36.044-88.14-80.153-122.328-131.107c-3.145-4.686-6.193-9.418-9.192-14.172c23.399,35.529,50.822,68.463,81.802,97.539
				c45.36,42.56,98.43,76.79,155.51,101.4c58,25.02,119.59,40.45,182.46,46.42c62.72,5.96,126.37,2.18,188-10.85
				c59.67-12.63,117.33-34.46,170.68-63.99c52.59-29.11,101.16-65.8,143.61-108.37c42.41-42.54,78.95-91.23,107.26-144.24
				c13.83-25.9,25.67-52.87,35.5-80.54c8.84-25.139,16.17-50.818,21.925-76.845c-1.477,7.316-3.06,14.621-4.783,21.909
				C1670.794,1257.153,1661.739,1285.554,1650.825,1312.599z"/>
		</g>
		<g>
			<path style="fill:#EFB118;" d="M1077.625,357.177c0.304,12.214,1.926,26.702,12.679,32.485c8.285,4.459,19.212,1.26,25.597-5.648
				s8.86-16.66,9.144-26.056c0.291-9.403-1.364-18.747-2.133-28.117c-2.661-32.741,5.262-67.352-2.384-98.492
				c-2.627-10.699-13-17.758-23.85-15.85c-0.061,0.011-0.122,0.022-0.183,0.033c-7.884,1.428-15.664,5.784-19.18,12.989
				c-2.688,5.512-2.591,11.916-2.436,18.049C1075.79,283.437,1076.708,320.304,1077.625,357.177z"/>
		</g>
		<g>
			<path style="fill:#EFB118;" d="M651.529,373.468c19.223,31.472,38.451,62.941,57.682,94.415
				c6.37,10.425,15.019,22.162,27.223,21.794c9.404-0.281,17.268-8.515,19.343-17.69c2.075-9.175-0.657-18.857-5.109-27.137
				c-4.449-8.288-10.554-15.553-15.905-23.284c-18.675-27.024-29.118-60.959-51.311-84.105c-7.625-7.952-20.137-8.879-28.58-1.802
				c-0.048,0.04-0.095,0.08-0.143,0.12c-6.114,5.179-10.674,12.841-10.116,20.839C645.043,362.737,648.329,368.235,651.529,373.468z
				"/>
		</g>
		<g>
			<path style="fill:#EFB118;" d="M348.347,695.041c32.383,17.644,64.77,35.283,97.162,52.925
				c10.729,5.844,24.087,11.683,34.473,5.263c8.004-4.945,10.697-16.008,7.907-24.992c-2.79-8.983-9.998-16.002-17.993-20.947
				c-7.997-4.953-16.917-8.193-25.416-12.212c-29.685-14.066-55.697-38.233-86.489-47.182c-10.579-3.074-21.879,2.379-25.652,12.73
				c-0.021,0.058-0.042,0.117-0.063,0.175c-2.705,7.542-2.823,16.458,1.659,23.105C337.364,688.99,342.959,692.109,348.347,695.041z
				"/>
		</g>
		<g>
			<path style="fill:#EFB118;" d="M389.662,1109.696c4.459-8.285,1.26-19.212-5.648-25.597s-16.66-8.86-26.056-9.144
				c-9.403-0.291-18.747,1.364-28.117,2.133c-32.741,2.661-67.352-5.262-98.492,2.384c-10.699,2.627-17.758,13-15.85,23.85
				c0.011,0.061,0.022,0.122,0.033,0.183c1.428,7.884,5.784,15.664,12.989,19.18c5.512,2.688,11.916,2.591,18.049,2.436
				c36.867-0.911,73.734-1.829,110.607-2.746C369.391,1122.071,383.879,1120.449,389.662,1109.696z"/>
		</g>
		<g>
			<path style="fill:#EFB118;" d="M471.988,1444.222c-9.175-2.075-18.857,0.657-27.137,5.109
				c-8.288,4.449-15.553,10.554-23.284,15.905c-27.024,18.675-60.959,29.118-84.105,51.311c-7.952,7.625-8.879,20.137-1.802,28.58
				c0.04,0.048,0.08,0.095,0.12,0.143c5.179,6.114,12.841,10.674,20.839,10.116c6.118-0.428,11.615-3.714,16.849-6.915
				c31.472-19.223,62.941-38.451,94.415-57.682c10.425-6.37,22.162-15.019,21.794-27.223
				C489.397,1454.162,481.163,1446.297,471.988,1444.222z"/>
		</g>
		<g>
			<path style="fill:#EFB118;" d="M728.237,1712.111c-8.983,2.79-16.002,9.998-20.947,17.993
				c-4.953,7.997-8.193,16.917-12.212,25.416c-14.066,29.685-38.233,55.697-47.182,86.489c-3.074,10.579,2.379,21.879,12.73,25.652
				c0.058,0.021,0.117,0.042,0.175,0.063c7.542,2.705,16.458,2.823,23.105-1.659c5.084-3.43,8.202-9.024,11.134-14.413
				c17.644-32.383,35.283-64.77,52.925-97.162c5.844-10.729,11.683-24.087,5.263-34.473
				C748.283,1712.015,737.22,1709.321,728.237,1712.111z"/>
		</g>
		<g>
			<path style="fill:#EFB118;" d="M1122.375,1842.823c-0.304-12.214-1.926-26.702-12.679-32.485
				c-8.285-4.459-19.212-1.26-25.597,5.648c-6.385,6.908-8.86,16.66-9.144,26.056c-0.291,9.402,1.364,18.747,2.133,28.117
				c2.661,32.741-5.262,67.352,2.384,98.492c2.627,10.699,13,17.758,23.85,15.85c0.061-0.011,0.122-0.022,0.183-0.033
				c7.884-1.428,15.664-5.784,19.18-12.989c2.688-5.512,2.591-11.916,2.436-18.049
				C1124.21,1916.563,1123.292,1879.696,1122.375,1842.823z"/>
		</g>
		<g>
			<path style="fill:#EFB118;" d="M1548.471,1826.531c-19.222-31.472-38.451-62.941-57.682-94.415
				c-6.37-10.425-15.019-22.162-27.223-21.794c-9.404,0.281-17.268,8.515-19.343,17.69c-2.075,9.175,0.657,18.857,5.109,27.137
				c4.449,8.288,10.554,15.554,15.905,23.284c18.675,27.024,29.119,60.959,51.311,84.105c7.625,7.952,20.137,8.879,28.58,1.802
				c0.048-0.04,0.095-0.08,0.142-0.12c6.114-5.179,10.674-12.841,10.116-20.839
				C1554.957,1837.263,1551.671,1831.765,1548.471,1826.531z"/>
		</g>
		<g>
			<path style="fill:#EFB118;" d="M1851.653,1504.959c-32.383-17.644-64.77-35.283-97.162-52.925
				c-10.729-5.844-24.087-11.683-34.473-5.263c-8.004,4.945-10.697,16.008-7.907,24.991c2.79,8.983,9.998,16.003,17.993,20.947
				c7.998,4.953,16.917,8.193,25.416,12.212c29.685,14.066,55.697,38.233,86.489,47.182c10.579,3.074,21.879-2.379,25.652-12.73
				c0.021-0.058,0.042-0.117,0.063-0.175c2.705-7.542,2.823-16.458-1.659-23.105
				C1862.636,1511.01,1857.042,1507.891,1851.653,1504.959z"/>
		</g>
		<g>
			<path style="fill:#EFB118;" d="M1984.501,1096.678c-0.011-0.061-0.022-0.122-0.033-0.183c-1.428-7.884-5.784-15.664-12.989-19.18
				c-5.512-2.688-11.916-2.591-18.049-2.436c-36.867,0.911-73.734,1.829-110.607,2.746c-12.214,0.304-26.702,1.926-32.485,12.679
				c-4.459,8.285-1.26,19.212,5.648,25.597c6.908,6.385,16.659,8.86,26.056,9.144c9.402,0.291,18.747-1.364,28.117-2.133
				c32.741-2.661,67.352,5.262,98.492-2.384C1979.349,1117.901,1986.409,1107.528,1984.501,1096.678z"/>
		</g>
		<g>
			<path style="fill:#EFB118;" d="M1728.012,755.778c9.175,2.075,18.857-0.657,27.137-5.109
				c8.288-4.449,15.553-10.554,23.284-15.905c27.024-18.675,60.959-29.118,84.105-51.311c7.952-7.625,8.879-20.137,1.802-28.58
				c-0.04-0.048-0.08-0.095-0.12-0.143c-5.179-6.114-12.841-10.674-20.839-10.116c-6.118,0.428-11.615,3.714-16.849,6.915
				c-31.472,19.223-62.941,38.451-94.415,57.682c-10.425,6.37-22.162,15.019-21.794,27.223
				C1710.603,745.838,1718.837,753.703,1728.012,755.778z"/>
		</g>
		<g>
			<path style="fill:#EFB118;" d="M1471.763,487.889c8.983-2.79,16.002-9.998,20.947-17.993c4.953-7.997,8.193-16.917,12.212-25.416
				c14.066-29.685,38.233-55.697,47.182-86.489c3.074-10.579-2.379-21.879-12.729-25.652c-0.058-0.021-0.117-0.042-0.175-0.063
				c-7.542-2.705-16.458-2.823-23.105,1.659c-5.084,3.43-8.202,9.024-11.134,14.413c-17.644,32.383-35.283,64.77-52.925,97.162
				c-5.844,10.729-11.683,24.087-5.263,34.473C1451.717,487.985,1462.78,490.679,1471.763,487.889z"/>
		</g>
	</g>
</g>
</svg>
