<?xml version="1.0" encoding="UTF-8"?>
<svg id="uuid-8eb4d149-2c12-4d74-9517-af711ba8e5a8" data-name="Layer 3" xmlns="http://www.w3.org/2000/svg" viewBox="0 0 3553.67 2347.17">
  <defs>
    <style>
      .uuid-246d78eb-6672-4cb4-b0f1-dfc28a1f522e {
        fill: #c1272d;
      }

      .uuid-246d78eb-6672-4cb4-b0f1-dfc28a1f522e, .uuid-a94f27d4-2e0a-4afc-b744-9f09a39bb353, .uuid-89f58a25-b0fd-4717-b1b0-6502ec7d8265, .uuid-70e7eb58-c7ab-42fe-b823-db219c2205a5, .uuid-edb61048-1fa9-435b-bb4c-d26422d7f7d8, .uuid-302aaf41-74e6-40a1-a2f9-155d528f18e3, .uuid-5d50a343-2240-4535-8e26-4b835196a15f, .uuid-052d93fc-c182-41d5-aae9-5838758ef636 {
        stroke-width: 0px;
      }

      .uuid-a94f27d4-2e0a-4afc-b744-9f09a39bb353 {
        fill: #0071bc;
      }

      .uuid-89f58a25-b0fd-4717-b1b0-6502ec7d8265 {
        fill: #e6e6e6;
      }

      .uuid-70e7eb58-c7ab-42fe-b823-db219c2205a5 {
        fill: #8cc63f;
      }

      .uuid-edb61048-1fa9-435b-bb4c-d26422d7f7d8 {
        fill: #29abe2;
      }

      .uuid-302aaf41-74e6-40a1-a2f9-155d528f18e3 {
        fill: #662d91;
      }

      .uuid-5d50a343-2240-4535-8e26-4b835196a15f {
        fill: #f7931e;
      }

      .uuid-052d93fc-c182-41d5-aae9-5838758ef636 {
        fill: #fff;
      }
    </style>
  </defs>
  <rect class="uuid-89f58a25-b0fd-4717-b1b0-6502ec7d8265" x="490.27" y="111.98" width="2563.49" height="2158.24"/>
  <rect class="uuid-052d93fc-c182-41d5-aae9-5838758ef636" x="500.27" y="121.98" width="2543.49" height="2138.23"/>
  <g>
    <path class="uuid-a94f27d4-2e0a-4afc-b744-9f09a39bb353" d="m1301.64,1517.55c-77.97,2.55-161.9,9.75-250.71,23.61l-17.74-552.26c32.53-10.03,62.66-16.09,88.51-19.77l-1.47-34.95c-31.5,4.32-69.23,12.05-110.29,25.74l-12.27,4.09,19.9,619.4,20.38-4.46c1.85-.41,86.01-18.26,221.26-26.15,137.71-10.76,318.48-14.2,499.41,13.3-.33.12-.68.23-1.02.35.57-.09,1.15-.16,1.72-.25v-.34c-149.63-52.89-388.11-50.34-457.68-48.31Z"/>
    <path class="uuid-70e7eb58-c7ab-42fe-b823-db219c2205a5" d="m1142.36,1461.6s141.24-30.7,412.13,0c-148.64-37.46-323.6-42.16-378.99-37.97l-19.29-459.79-1.46-34.76-1.96-46.81c41.49-2.97,76.73-3.98,105.81-3.99l-2.51-34.75c-33.26.09-74.08,1.48-122.74,5.42l-16.63,1.35,3.39,80.74.13,3.15,1.47,34.95,20.66,492.47Z"/>
    <path class="uuid-edb61048-1fa9-435b-bb4c-d26422d7f7d8" d="m1258.61,878.43l21.33,486.35s115.03-11.44,327.24,70.34c-127.9-83.74-294.8-102.71-294.8-102.71l-26.53-558.2c.55.07,1.06.15,1.61.22l-.04.41c1.11.1,268.72,41.71,449.16,180.5,1.14,2.92,16.58,315.83,22.74,441.42v-472.65s-28.88-19.32-41.38-27.07c-216.92-134.55-442.63-158.91-467.39-161.22l5.53,107.71,2.51,34.75v.16Z"/>
    <path class="uuid-5d50a343-2240-4535-8e26-4b835196a15f" d="m2217,1517.55c77.97,2.55,161.9,9.75,250.71,23.61l17.74-552.26c-32.53-10.03-62.66-16.09-88.51-19.77l1.47-34.95c31.5,4.32,69.23,12.05,110.29,25.74l12.27,4.09-19.9,619.4-20.38-4.46c-1.85-.41-86.01-18.26-221.26-26.15-137.71-10.76-318.48-14.2-499.41,13.3.33.12.68.23,1.02.35-.57-.09-1.15-.16-1.72-.25v-.34c149.63-52.89,388.11-50.34,457.68-48.31Z"/>
    <path class="uuid-302aaf41-74e6-40a1-a2f9-155d528f18e3" d="m2376.28,1461.6s-141.24-30.7-412.13,0c148.64-37.46,323.6-42.16,378.99-37.97l19.29-459.79,1.46-34.76,1.96-46.81c-41.49-2.97-76.73-3.98-105.81-3.99l2.51-34.75c33.26.09,74.08,1.48,122.74,5.42l16.63,1.35-3.39,80.74-.13,3.15-1.47,34.95-20.66,492.47Z"/>
    <path class="uuid-246d78eb-6672-4cb4-b0f1-dfc28a1f522e" d="m2260.03,878.43l-21.33,486.35s-115.03-11.44-327.24,70.34c127.9-83.74,294.8-102.71,294.8-102.71l26.53-558.2c-.55.07-1.06.15-1.61.22l.04.41c-1.11.1-268.72,41.71-449.16,180.5-1.14,2.92-16.58,315.83-22.74,441.42v-472.65s28.88-19.32,41.38-27.07c216.92-134.55,442.63-158.91,467.39-161.22l-5.53,107.71-2.51,34.75v.16Z"/>
  </g>
</svg>