<?xml version="1.0" encoding="UTF-8"?>
<svg id="uuid-361f4d90-7753-43ce-bfb1-94b8bd67aea5" data-name="Steering" xmlns="http://www.w3.org/2000/svg" viewBox="0 0 5000 5000">
  <defs>
    <style>
      .uuid-bc76babc-4ad8-481a-8db7-c93a2905086d {
        fill: #fff;
      }

      .uuid-bc76babc-4ad8-481a-8db7-c93a2905086d, .uuid-1a2e2be8-8bc5-48c1-85e2-fd60b1e66d67 {
        stroke-width: 0px;
      }

      .uuid-1a2e2be8-8bc5-48c1-85e2-fd60b1e66d67 {
        fill: #231f20;
      }
    </style>
  </defs>
  <rect class="uuid-bc76babc-4ad8-481a-8db7-c93a2905086d" width="5000" height="5000"/>
  <g>
    <path class="uuid-1a2e2be8-8bc5-48c1-85e2-fd60b1e66d67" d="m2502.31,1570.2c-508.8,0-922.73,413.94-922.73,922.74s413.93,922.73,922.73,922.73,922.73-413.94,922.73-922.73-413.94-922.74-922.73-922.74Zm642.01,366.17c10.12,8.32,19.45,15.17,27.03,19.46,4.02,2.27,8.39,3.35,12.7,3.35,3.64,0,7.16-.96,10.47-2.44,97.31,124.18,162.03,275.01,181.36,439.52-8.44,2.01-15.67,8.11-18.61,16.92-2.6,7.81-4.66,21.33-6.07,37.74h-114.9c.92-9.97,2.07-17.59,3.33-21.37,3.39-10.18.11-20.96-7.47-27.62-3.04-4.02-7.27-7.19-12.41-8.9-5.62-1.87-11.36-1.63-16.54.16-17.71-117.4-64.23-225.47-132.08-316.77,7.16-1.41,13.71-5.66,17.59-12.5,7.02-12.44,2.64-28.22-9.8-35.25-4.55-2.58-9.98-6.44-15.85-11.05l81.24-81.25Zm34.4,563.64c0,7.83-6.36,14.18-14.18,14.18s-14.19-6.35-14.19-14.18,6.35-14.19,14.19-14.19,14.18,6.35,14.18,14.19Zm-200.04,349.97c-7.91,3.96-20.06,13.09-33.83,24.87l-73.14-73.14c4.05-3.16,7.41-5.54,9.52-6.6,10.5-5.24,14.76-18.01,9.51-28.51-5.24-10.49-18.01-14.76-28.51-9.5-5.09,2.54-12.35,7.74-20.66,14.47l-95.17-95.17c7.66-6.35,13.9-10.99,17.45-12.77,12.77-6.38,17.95-21.92,11.57-34.7-.99-1.98-2.27-3.71-3.65-5.31.84-1.91,1.75-3.78,2.57-5.7,1.62-.13,3.25-.36,4.86-.81,13.76-3.82,21.83-18.08,18.01-31.84-1.48-5.31-2.64-12.18-3.56-20.05h135.76c.79,5.15,1.7,9.82,2.76,13.65,2.61,9.4,11.15,15.56,20.46,15.56,1.9,0,3.82-.26,5.72-.79,11.32-3.14,17.93-14.86,14.77-26.17-.18-.67-.34-1.52-.5-2.25h102.41c1.25,11.91,2.94,22.3,5.11,30.11,2.03,7.28,6.99,12.94,13.24,16.11-16.26,86.58-51.05,166.65-100.11,236-4.84-.57-9.89.19-14.58,2.53Zm-.4,131.58c-5.53,5.54-14.52,5.54-20.05,0-5.53-5.54-5.53-14.52,0-20.06,5.54-5.54,14.52-5.54,20.05,0,5.55,5.55,5.55,14.52,0,20.06Zm-134.59,14.27c-70.56,49.02-151.98,83.32-239.89,98.61-2.48-2.12-5.38-3.83-8.66-4.93-8.4-2.8-23.38-4.97-41.51-6.38v-103.39c5.09.62,9.14,1.31,11.39,2.06,2.24.74,4.5,1.1,6.74,1.1,8.89,0,17.19-5.63,20.15-14.54,3.72-11.13-2.3-23.17-13.44-26.89-5.39-1.8-14.2-3.25-24.84-4.38v-134.61c9.97.93,17.59,2.08,21.38,3.33,2.71.91,5.46,1.33,8.17,1.33,10.83,0,20.93-6.85,24.54-17.69.9-2.7,1.2-5.41,1.21-8.11,1.47-.6,2.95-1.18,4.41-1.8,1.6,1.6,3.36,3.07,5.42,4.24,4.02,2.27,8.39,3.35,12.7,3.35,9.02,0,17.78-4.73,22.54-13.15,2.7-4.77,6.79-10.48,11.69-16.65l83.59,83.58,12.37,12.38c-3.08,4.2-5.73,8.14-7.69,11.6-5.76,10.22-2.16,23.18,8.06,28.95,3.3,1.87,6.89,2.75,10.43,2.75,7.41,0,14.62-3.89,18.52-10.81.34-.6.84-1.31,1.23-1.95l72.42,72.43c-7.54,9.31-13.69,17.85-17.68,24.9-2.6,4.62-3.63,9.71-3.25,14.64Zm-542.54-502.9c0-111.1,90.06-201.16,201.16-201.16s201.16,90.06,201.16,201.16-90.06,201.16-201.16,201.16-201.16-90.06-201.16-201.16Zm41.59,185.76c-5.92,5.92-15.51,5.92-21.43,0-5.92-5.92-5.92-15.51,0-21.43,5.92-5.92,15.51-5.92,21.43,0,5.92,5.92,5.92,15.51,0,21.43Zm-102.04-512.03l-12.36-12.37c3.08-4.19,5.73-8.14,7.69-11.59,5.77-10.22,2.16-23.19-8.05-28.97-10.24-5.77-23.19-2.17-28.96,8.05-.35.61-.83,1.32-1.23,1.96l-72.42-72.42c7.54-9.3,13.67-17.85,17.66-24.91,2.77-4.89,3.7-10.29,3.13-15.49,69.61-50.53,150.32-86.6,237.78-103.71,2.4,7.64,8.26,14.09,16.43,16.82,8.4,2.8,23.41,4.96,41.53,6.38v103.4c-5.1-.63-9.15-1.32-11.39-2.07-11.14-3.7-23.18,2.31-26.89,13.45-3.71,11.13,2.3,23.18,13.43,26.88,5.4,1.8,14.21,3.26,24.85,4.38v123.55c-9.86,1.7-19.55,3.88-29.06,6.52-5.6-.1-10.99,1.56-15.46,4.74-9.84,3.31-19.48,7.11-28.85,11.36-11.96-5.07-26.03-.59-32.56,10.97-1.82,3.23-4.36,6.93-7.25,10.84-2.07,1.35-4.14,2.68-6.18,4.07l-81.84-81.84Zm36.9,333.34c0,8.37-6.79,15.15-15.16,15.15s-15.16-6.78-15.16-15.15,6.79-15.15,15.16-15.15,15.16,6.78,15.16,15.15Zm-158.87,299.97c.61.34,1.32.84,1.97,1.23l-72.42,72.42c-9.31-7.54-17.85-13.69-24.91-17.67-4.02-2.27-8.39-3.23-12.71-3.23-50.28-69.52-86.15-150.07-103.15-237.34,3.35-2.93,6.02-6.7,7.53-11.22,2.81-8.4,4.97-23.39,6.39-41.53h103.39c-.62,5.1-1.31,9.15-2.06,11.4-3.71,11.13,2.31,23.17,13.44,26.88,2.23.74,4.5,1.1,6.72,1.1,8.9,0,17.2-5.64,20.16-14.55,1.79-5.39,3.25-14.2,4.37-24.83h128.85c1.12,5.27,2.39,10.47,3.76,15.64-.43,2.37-.87,4.34-1.34,5.73-4.24,12.72,2.03,26.31,14.03,31.67,2.11,5.1,4.32,10.14,6.69,15.09-4.86,11.87-.36,25.76,11.11,32.25,3.66,2.07,7.88,4.97,12.42,8.39,1.01,1.48,2.08,2.93,3.14,4.4l-94.85,94.85c-4.21-3.08-8.15-5.74-11.61-7.69-10.23-5.78-23.18-2.17-28.96,8.05-5.77,10.22-2.16,23.19,8.05,28.96Zm-80.23,178.32c-5.54,5.54-14.52,5.54-20.06,0-5.55-5.54-5.55-14.52,0-20.06,5.53-5.54,14.52-5.54,20.06,0,5.54,5.54,5.54,14.52,0,20.06Zm6.65-845.53l73.14,73.13c-4.04,3.16-7.4,5.55-9.52,6.6-10.5,5.25-14.76,18.01-9.51,28.52,3.73,7.45,11.23,11.75,19.03,11.75,3.2,0,6.43-.72,9.49-2.25,5.08-2.54,12.34-7.73,20.65-14.47l93.47,93.47c-1.41,2.09-2.73,4.24-4.11,6.37-4.95,3.88-9.06,6.8-11.65,8.09-12.78,6.38-17.96,21.93-11.57,34.7.05.1.14.21.19.32-3.33,7.66-6.31,15.51-9.02,23.49-6.82,6.33-10.03,16.05-7.44,25.64-1.61,6.65-2.99,13.38-4.16,20.2h-128c-.79-5.16-1.69-9.81-2.76-13.64-3.13-11.31-14.86-17.93-26.16-14.79-11.32,3.14-17.94,14.86-14.8,26.18.19.67.34,1.51.52,2.25h-102.41c-1.25-11.91-2.95-22.3-5.12-30.1-1.82-6.52-6.02-11.7-11.35-15,14.35-88.96,48.15-171.48,96.98-243.01,3.46-.17,6.94-.94,10.24-2.59,7.91-3.96,20.07-13.09,33.85-24.87Zm-28.99-120.27c5.53-5.55,14.52-5.55,20.06,0,5.54,5.53,5.54,14.52,0,20.06-5.53,5.55-14.52,5.55-20.06,0-5.55-5.53-5.55-14.52,0-20.06Zm326.59,330.25c-5.92,5.92-15.51,5.92-21.43,0-5.92-5.92-5.92-15.51,0-21.43,5.92-5.92,15.51-5.92,21.43,0,5.92,5.92,5.92,15.51,0,21.43Zm314.52-21.44c5.92-5.92,15.51-5.92,21.43,0,5.92,5.92,5.92,15.51,0,21.43s-15.51,5.92-21.43,0-5.92-15.51,0-21.43Zm21.44,357.39c-5.92,5.92-15.51,5.92-21.43,0-5.92-5.92-5.92-15.51,0-21.43,5.92-5.92,15.51-5.92,21.43,0,5.92,5.92,5.92,15.51,0,21.43Zm43.71-178.69c0-8.37,6.78-15.15,15.15-15.15s15.15,6.78,15.15,15.15-6.78,15.15-15.15,15.15-15.15-6.78-15.15-15.15Zm358.11-90.6c-2.79,8.4-4.97,23.39-6.37,41.52h-103.39c.63-5.1,1.32-9.14,2.06-11.4,3.71-11.12-2.3-23.16-13.43-26.88-11.13-3.7-23.18,2.3-26.89,13.44-1.79,5.39-3.26,14.2-4.37,24.84h-133.83c-.15-.95-.34-1.9-.51-2.85.88-8.57,1.92-15.12,3.07-18.52,4.51-13.56-2.82-28.21-16.37-32.72-.06-.03-.12-.03-.17-.04-2.09-5.77-4.33-11.45-6.75-17.05.69-.91,1.5-1.69,2.08-2.71,7.03-12.44,2.65-28.22-9.79-35.25-4.76-2.7-10.48-6.79-16.65-11.69l83.58-83.59,12.38-12.37c4.2,3.08,8.13,5.74,11.59,7.7,3.31,1.86,6.89,2.75,10.43,2.75,7.42,0,14.62-3.88,18.53-10.8,5.76-10.22,2.16-23.18-8.06-28.96-.6-.35-1.31-.83-1.95-1.23l72.42-72.42c9.32,7.54,17.85,13.68,24.91,17.66,4.02,2.27,8.37,3.35,12.69,3.35,2.39,0,4.73-.36,7.01-1.01,50.5,71.16,85.94,153.64,101.76,242.87-6.35,2.86-11.56,8.21-13.94,15.35Zm-118.2-396.45c5.55-5.55,14.53-5.55,20.06,0,5.53,5.53,5.53,14.51,0,20.06-5.53,5.54-14.52,5.54-20.06,0-5.54-5.55-5.54-14.52,0-20.06Zm-405.07-359.93c13.03-1.29,24.48-3.04,32.87-5.37,10.84-3.01,18.03-12.5,18.78-23.12,160.91,19.89,308.51,83.29,430.66,178.04-2.8,6.7-2.88,14.5.62,21.51,3.68,7.35,11.81,18.37,22.41,30.96l-81.25,81.25c-6.34-7.67-10.99-13.91-12.78-17.47-4.78-9.58-14.72-14.89-24.79-14.24-4.99-.68-10.22.06-15.07,2.49-6.68,3.34-11.21,9.2-13.17,15.84-89.29-64.49-194.05-108.81-307.58-126.16,1.33-4.5,1.53-9.37.19-14.23-3.83-13.76-18.09-21.81-31.85-18-5.07,1.41-11.59,2.54-19.02,3.43v-114.93Zm-1.01,439.62v-17.48c5.16-.79,9.8-1.7,13.63-2.78,11.31-3.15,17.92-14.86,14.79-26.17-3.15-11.31-14.87-17.94-26.17-14.79-.67.19-1.52.34-2.25.52v-102.43c11.88-1.26,22.29-2.93,30.09-5.09,9.51-2.65,16.18-10.3,18.2-19.31,85.93,15.05,165.68,48.21,235.08,95.57-1.03,5.39-.46,11.13,2.18,16.41,3.96,7.91,13.08,20.06,24.86,33.85l-73.12,73.13c-3.18-4.04-5.55-7.39-6.6-9.51-5.24-10.5-18.01-14.77-28.52-9.51-10.49,5.25-14.75,18.01-9.5,28.52,2.53,5.08,7.73,12.33,14.47,20.65l-11.46,11.45h0s-83.71,83.72-83.71,83.72c-6.36-7.67-11.01-13.91-12.78-17.46-6.4-12.78-21.93-17.94-34.7-11.56-.95.47-1.76,1.08-2.62,1.66-4.97-2.24-9.99-4.34-15.1-6.3-6.08-7.3-15.93-10.86-25.69-8.58-6.95-1.98-13.97-3.79-21.11-5.28v-109.23Zm-56.23-271.36c7.83,0,14.19,6.34,14.19,14.18s-6.36,14.18-14.19,14.18-14.18-6.34-14.18-14.18,6.35-14.18,14.18-14.18Zm0,426c8.37,0,15.15,6.78,15.15,15.15s-6.78,15.15-15.15,15.15-15.15-6.78-15.15-15.15,6.78-15.15,15.15-15.15Zm-549.98-419.24c3.43-6.05,4.1-12.88,2.5-19.12,122.54-97.34,271.44-162.83,434.11-183.82.93,9.91,7.51,18.82,17.55,22.18,7.82,2.6,21.32,4.66,37.74,6.06v114.9c-9.96-.93-17.6-2.08-21.37-3.33-10.17-3.38-20.97-.1-27.63,7.49-4,3.04-7.16,7.26-8.88,12.39-1.5,4.5-1.59,9.1-.68,13.43-115.87,19.22-222.35,66.53-312.21,134.69-.11-8.91-4.72-17.52-13.03-22.22-12.44-7.03-28.22-2.65-35.24,9.79-2.59,4.57-6.45,9.98-11.06,15.86l-81.25-81.25c8.32-10.12,15.17-19.46,19.45-27.04Zm-148.03,133.44c1.56.29,3.14.49,4.74.49,3.88,0,7.84-.87,11.55-2.73,7.35-3.68,18.36-11.8,30.96-22.4l81.25,81.25c-7.67,6.34-13.9,10.99-17.46,12.77-9.59,4.79-14.89,14.74-14.24,24.81-.68,4.98.06,10.22,2.48,15.05,4.28,8.55,12.65,13.64,21.56,14.2-65.91,91.47-110.62,199.15-126.94,315.82-6.19-4.62-14.33-6.52-22.36-4.3-13.76,3.83-21.81,18.09-17.99,31.84,1.41,5.07,2.54,11.58,3.43,19.03h-114.91c-1.27-13.06-3.05-24.47-5.38-32.88-2.16-7.77-7.7-13.61-14.55-16.63,18.85-163.04,82.32-312.66,177.87-436.32Zm47.66,538.5c0,7.84-6.34,14.19-14.18,14.19s-14.18-6.35-14.18-14.19,6.36-14.18,14.18-14.18,14.18,6.35,14.18,14.18Zm2.38,568.43c-10.12-8.32-19.46-15.17-27.03-19.45-5.28-2.99-11.14-3.8-16.7-2.93-96.41-121.83-161.38-269.6-182.56-430.98,5.72-3,10.34-8.09,12.54-14.69,2.6-7.81,4.66-21.32,6.07-37.73h114.91c-.93,9.97-2.08,17.59-3.34,21.37-3.39,10.17-.1,20.96,7.48,27.62,3.04,4.01,7.27,7.18,12.4,8.89,2.71.91,5.47,1.33,8.18,1.33,5.33,0,10.47-1.67,14.75-4.65,19.25,115.24,66.28,221.19,133.99,310.7-9.88-.98-19.88,3.78-25.07,12.98-7.03,12.42-2.65,28.21,9.79,35.24,4.57,2.58,9.98,6.44,15.86,11.05l-81.26,81.25Zm586.28,292.08c-13.05,1.28-24.47,3.06-32.88,5.39-5.56,1.54-10.12,4.84-13.41,9.08-162.04-19.88-310.6-83.87-433.3-179.57.59-4.87-.17-9.97-2.53-14.69-3.67-7.36-11.8-18.37-22.4-30.96l81.24-81.25c6.36,7.67,11,13.91,12.78,17.47,4.53,9.06,13.66,14.3,23.15,14.3.4,0,.8-.12,1.2-.14,1.31.2,2.63.33,3.97.33,3.89,0,7.84-.88,11.55-2.74,9.09-4.54,14.23-13.72,14.2-23.23,91.11,66.48,198.55,111.84,315.08,128.84-.07.08-.15.13-.22.21-8.19,6.22-12.22,16.98-9.31,27.49,3.83,13.76,18.11,21.84,31.86,17.99,5.07-1.41,11.59-2.53,19.02-3.42v114.91Zm1.01-439.6v17.5c-5.14.79-9.82,1.7-13.64,2.76-11.32,3.14-17.93,14.86-14.79,26.17,3.14,11.31,14.86,17.94,26.17,14.77.67-.19,1.53-.34,2.25-.51v102.41c-11.91,1.25-22.29,2.95-30.1,5.12-3.98,1.11-7.42,3.17-10.29,5.76-88.67-15.03-170.79-49.4-241.89-98.68-.35-2.89-1.09-5.78-2.47-8.54-3.96-7.91-13.09-20.06-24.88-33.84l73.13-73.14c3.17,4.05,5.55,7.41,6.62,9.53,3.72,7.45,11.22,11.76,19.02,11.76,3.2,0,6.44-.73,9.49-2.25,10.5-5.24,14.76-18.02,9.5-28.51-2.53-5.09-7.73-12.35-14.47-20.67l95.18-95.17c6.35,7.66,11,13.9,12.77,17.45,4.53,9.07,13.66,14.31,23.16,14.31,3.88,0,7.83-.88,11.54-2.73,1.55-.77,2.97-1.69,4.28-2.71,2.28.93,4.57,1.84,6.88,2.72.16,1.25.3,2.52.65,3.78,3.83,13.78,18.11,21.83,31.84,18,5.31-1.47,12.18-2.63,20.05-3.54v118.24Zm60.67,257.81c-7.83,0-14.18-6.35-14.18-14.18s6.35-14.19,14.18-14.19,14.19,6.36,14.19,14.19-6.36,14.18-14.19,14.18Zm0-426c-8.37,0-15.15-6.79-15.15-15.15s6.78-15.16,15.15-15.16,15.15,6.79,15.15,15.16-6.78,15.15-15.15,15.15Zm539.96,426.84c-3.38,5.99-4.06,12.73-2.53,18.92-122.99,94.8-271.6,157.9-433.5,176.99-3.04-4.14-7.33-7.44-12.58-9.19-7.8-2.6-21.31-4.65-37.73-6.07v-114.91c9.96.93,17.58,2.08,21.37,3.34,2.71.91,5.47,1.33,8.18,1.33,7.38,0,14.36-3.24,19.23-8.68,4.1-3.05,7.37-7.31,9.1-12.53,3.11-9.33.53-19.09-5.75-25.79,115.79-17.32,222.52-62.68,313.09-128.9-.1,9.13,4.52,18.04,13.01,22.84,4.02,2.28,8.4,3.35,12.71,3.35,9.02,0,17.78-4.73,22.53-13.14,2.59-4.56,6.45-9.98,11.05-15.86l81.25,81.25c-8.32,10.12-15.17,19.45-19.45,27.03Zm151.22-132.66c-6.21-2-13.18-1.69-19.48,1.46-7.35,3.68-18.37,11.81-30.97,22.42l-81.24-81.26c7.66-6.35,13.91-11.01,17.45-12.78,9.58-4.79,14.89-14.73,14.24-24.79.69-4.99-.06-10.22-2.48-15.07-3.66-7.31-10.34-12.02-17.77-13.61,66.39-89.25,112.35-194.54,130.96-308.89,3.93,2.34,8.45,3.69,13.16,3.69,2.29,0,4.62-.31,6.93-.95,13.77-3.82,21.83-18.08,18.01-31.84-1.42-5.07-2.54-11.59-3.43-19.03h114.92c1.29,13.07,3.05,24.48,5.39,32.88,2.46,8.79,9.17,15.22,17.29,17.74-21.47,161.05-86.55,308.5-182.99,430.04Z"/>
    <path class="uuid-1a2e2be8-8bc5-48c1-85e2-fd60b1e66d67" d="m4273.41,2426.71c-136.82-22.25-176.38,42.76-317.88,13.82.22-7.79-4.55-15.12-12.32-17.72-9.51-3.18-19.8,1.97-22.98,11.48-1.28,3.83-2.36,9.67-3.24,16.73h-60.77c-.94.5-1.95.85-3.09.85h-106.17c-1.14,0-2.15-.36-3.08-.85-2.14-1.11-3.63-3.29-3.63-5.86,0-3.7,3.01-6.71,6.71-6.71h93.32v-16.47h-100.37c.8-6.05,1.7-10.75,2.65-13.59,5.36-16.07-3.33-33.46-19.4-38.81-16.07-5.33-33.45,3.32-38.82,19.4-.78,2.35-1.52,5.17-2.22,8.35-20.7-257.65-124.22-492.28-283.9-677.15,6.25,4.6,12.04,8.49,17.18,11.39,4.76,2.7,9.95,3.98,15.06,3.98,10.71,0,21.1-5.62,26.75-15.59,8.33-14.76,3.14-33.47-11.62-41.81-2.74-1.56-5.81-3.57-8.99-5.8l70.39-70.39-26.68-26.67,53.9-53.91c6.17,4.93,11.83,8.99,16.52,11.64,2.83,1.6,5.9,2.35,8.92,2.35,6.34,0,12.49-3.32,15.83-9.22,3.65-6.46,2.9-14.18-1.26-19.78,55.57-107.47,145.29-108.49,226.01-222.67,87.13-123.23,17.17-180.66-97.23-98.26-112.47,81.01-94.47,154.96-215,234.54-5.35-5.66-13.93-7.49-21.25-3.82-8.97,4.48-12.6,15.4-8.13,24.37,1.81,3.61,5.16,8.5,9.54,14.12l-42.98,42.98c-.31,1.01-.77,1.97-1.58,2.77l-75.09,75.07c-.79.8-1.75,1.28-2.75,1.59-.65.21-1.31.38-1.98.38-1.72,0-3.43-.65-4.74-1.97-2.62-2.62-2.62-6.86,0-9.48l65.99-65.99-11.65-11.64-70.97,70.96c-3.69-4.83-6.41-8.81-7.75-11.48-7.58-15.17-26.02-21.31-41.17-13.72-15.16,7.58-21.29,26-13.72,41.16,2.61,5.22,7.07,11.97,12.94,19.74-180.74-155.29-408.7-257.03-659.08-280.5,13.75-6.03,21.4-21.3,17.27-36.19-4.54-16.32-21.46-25.88-37.78-21.34-3.07.85-6.61,1.6-10.47,2.29v-99.57h-37.72v-76.22c7.85-.87,14.7-2.01,19.91-3.47,9.67-2.68,15.32-12.69,12.64-22.35-1.99-7.15-7.98-12.06-14.87-13.07-36.71-115.3,26.01-179.46,2.35-317.29-25.52-148.75-115.6-139.89-138.23-.73-22.25,136.82,42.77,176.38,13.83,317.89-7.79-.21-15.14,4.55-17.73,12.32-3.18,9.52,1.97,19.8,11.48,22.97,3.83,1.28,9.7,2.35,16.73,3.23v60.79c.5.93.84,1.95.84,3.08v106.19c0,1.13-.35,2.15-.84,3.08-1.12,2.13-3.28,3.63-5.86,3.63-3.7,0-6.71-3.01-6.71-6.71v-93.33h-16.47v100.38c-6.06-.81-10.77-1.71-13.6-2.65-16.1-5.37-33.46,3.33-38.81,19.4-5.15,15.45,2.75,31.98,17.62,38.02-253.75,24.6-484.29,129.68-665.76,289.31l-2.13-2.13c6.42-8.33,11.75-16.01,15.46-22.58,8.33-14.75,3.14-33.47-11.62-41.81-14.75-8.33-33.48-3.14-41.8,11.62-1.56,2.75-3.57,5.81-5.8,9l-70.38-70.39-26.68,26.68-53.91-53.91c4.93-6.15,8.99-11.81,11.65-16.51,4.93-8.73,1.86-19.81-6.87-24.74-6.45-3.64-14.18-2.9-19.77,1.26-107.47-55.57-108.5-145.28-222.68-226.01-123.23-87.13-180.66-17.17-98.27,97.23,81.01,112.49,154.97,94.48,234.55,215-5.66,5.36-7.49,13.92-3.82,21.25,3.19,6.37,9.6,10.05,16.26,10.05,2.73,0,5.5-.62,8.11-1.92,3.62-1.81,8.49-5.16,14.12-9.54l42.97,42.97c1.01.31,1.97.79,2.77,1.59l75.08,75.08c.8.79,1.27,1.76,1.59,2.76.71,2.31.24,4.9-1.59,6.72-1.31,1.32-3.02,1.96-4.73,1.96s-3.44-.65-4.74-1.96l-65.99-66-11.65,11.65,70.97,70.96c-4.83,3.69-8.82,6.42-11.49,7.76-15.15,7.58-21.3,26.01-13.72,41.17,5.38,10.75,16.21,16.97,27.47,16.97,4.62,0,9.3-1.04,13.7-3.25,6.9-3.45,16.51-10.2,27.61-19.07l2.08,2.08c-164.78,189.92-270.14,432.66-287.04,699.05-1.34-10.35-3-19.47-5.01-26.7-4.54-16.33-21.43-25.85-37.78-21.35-16.33,4.54-25.89,21.46-21.34,37.78.85,3.05,1.6,6.61,2.29,10.46h-99.57v37.72h-76.23c-.87-7.82-2-14.7-3.44-19.91-2.69-9.66-12.71-15.29-22.36-12.64-7.15,1.98-12.08,7.98-13.09,14.87-115.29,36.7-179.45-25.99-317.27-2.34-148.74,25.52-139.88,115.58-.73,138.22,136.82,22.26,176.38-42.77,317.89-13.82-.22,7.8,4.54,15.14,12.32,17.73,1.91.64,3.85.94,5.75.94,7.6,0,14.69-4.81,17.22-12.42,1.29-3.83,2.36-9.66,3.25-16.74h60.76c.93-.5,1.94-.84,3.08-.84h106.19c1.13,0,2.14.35,3.08.84,2.13,1.12,3.63,3.29,3.63,5.86,0,3.7-3.01,6.71-6.7,6.71h-93.33v16.48h100.37c-.8,6.05-1.7,10.76-2.64,13.6-5.36,16.07,3.33,33.45,19.41,38.81,3.21,1.07,6.49,1.58,9.7,1.58,12.85,0,24.83-8.13,29.11-20.99,2.43-7.31,4.47-18.88,6.03-33h0c18.89,264.54,125.06,505.28,289.85,693.55l-3.56,3.56c-8.34-6.42-16.01-11.74-22.58-15.46-14.76-8.34-33.47-3.15-41.81,11.62-8.33,14.76-3.13,33.47,11.62,41.81,2.75,1.56,5.81,3.57,9.01,5.8l-70.39,70.39,26.67,26.68-53.9,53.9c-6.15-4.93-11.82-8.99-16.52-11.64-8.73-4.93-19.8-1.86-24.74,6.88-3.64,6.45-2.89,14.17,1.26,19.76-55.57,107.47-145.28,108.5-226,222.67-87.14,123.23-17.18,180.67,97.23,98.26,112.46-81,94.47-154.93,214.94-234.51,3.45,3.66,8.25,5.7,13.2,5.7,2.72,0,5.5-.62,8.11-1.92,8.97-4.49,12.61-15.39,8.13-24.36-1.81-3.62-5.17-8.51-9.54-14.12l42.98-42.99c.32-1.01.79-1.96,1.58-2.76l75.08-75.08c.79-.79,1.75-1.26,2.75-1.57,2.3-.72,4.9-.26,6.72,1.57,2.63,2.62,2.63,6.86,0,9.48l-65.99,66,11.64,11.65,70.98-70.97c3.68,4.83,6.42,8.81,7.75,11.48,5.38,10.75,16.21,16.96,27.47,16.96,4.61,0,9.3-1.05,13.7-3.25,15.16-7.58,21.31-26.01,13.72-41.15-3.45-6.91-10.2-16.52-19.07-27.62l3.26-3.26c188.07,164.01,428.27,269.64,692.12,288.45v5.31c-10.44,1.35-19.62,3.01-26.9,5.03-16.33,4.54-25.89,21.46-21.34,37.79,4.53,16.32,21.43,25.86,37.78,21.34,3.07-.84,6.6-1.61,10.46-2.29v99.57h37.72v76.24c-7.84.87-14.71,2-19.91,3.45-9.67,2.7-15.32,12.7-12.63,22.36,1.98,7.14,7.98,12.05,14.86,13.08,36.7,115.29-26,179.44-2.35,317.27,25.53,148.75,115.6,139.89,138.24.74,22.25-136.8-42.76-176.37-13.83-317.82.17,0,.35.04.51.04,7.6,0,14.69-4.81,17.23-12.42,3.17-9.51-1.98-19.8-11.48-22.97-3.83-1.28-9.67-2.36-16.74-3.25v-60.79c-.49-.93-.84-1.94-.84-3.07v-106.18c0-1.12.35-2.14.84-3.07,1.12-2.14,3.29-3.64,5.87-3.64,3.7,0,6.71,3.01,6.71,6.71v93.33h16.47v-100.38c6.04.81,10.74,1.7,13.59,2.65,3.22,1.07,6.49,1.58,9.71,1.58,12.85,0,24.83-8.13,29.11-20.98,5.36-16.07-3.33-33.45-19.4-38.81-7.32-2.44-18.88-4.47-33.01-6.04v-4.17c264.68-16.79,506-120.91,695.37-283.87l1.74,1.74c-6.42,8.33-11.74,16.01-15.45,22.58-8.34,14.76-3.14,33.47,11.62,41.81,4.76,2.7,9.95,3.97,15.06,3.97,10.71,0,21.1-5.61,26.75-15.59,1.57-2.75,3.58-5.81,5.8-9.01l70.39,70.39,26.67-26.68,53.9,53.9c-4.91,6.15-8.98,11.82-11.64,16.52-4.93,8.73-1.85,19.81,6.88,24.74,2.83,1.6,5.89,2.35,8.92,2.35,3.88,0,7.58-1.37,10.72-3.68,107.59,55.56,108.57,145.31,222.8,226.07,123.23,87.13,180.66,17.17,98.26-97.22-81-112.49-154.96-94.48-234.54-215,5.65-5.35,7.48-13.91,3.82-21.25-4.48-8.97-15.36-12.59-24.37-8.13-3.61,1.81-8.5,5.16-14.12,9.54l-42.98-42.98c-1.01-.31-1.98-.78-2.77-1.58l-75.07-75.08c-.8-.79-1.27-1.75-1.59-2.76-.7-2.3-.24-4.9,1.59-6.72,2.62-2.62,6.86-2.62,9.47,0l66,66,11.64-11.64-70.97-70.98c4.83-3.68,8.81-6.42,11.48-7.75,15.15-7.57,21.3-26.01,13.73-41.17-7.58-15.15-26.03-21.29-41.17-13.72-6.9,3.45-16.51,10.2-27.61,19.07l-.53-.53c163.56-184.39,270.52-420.01,293.46-679.43.81,4.19,1.66,8.06,2.61,11.48,3.78,13.58,16.12,22.47,29.55,22.47,2.73,0,5.48-.36,8.23-1.12,16.34-4.54,25.89-21.46,21.36-37.78-.86-3.06-1.61-6.61-2.3-10.46h99.57v-37.72h76.24c.87,7.83,1.99,14.71,3.44,19.91,2.24,8.05,9.53,13.3,17.49,13.3,1.61,0,3.25-.22,4.87-.67,7.16-1.99,12.08-7.99,13.1-14.88,115.28-36.69,179.43,26.01,317.25,2.36,148.75-25.52,139.89-115.6.74-138.23Zm-734.46-1015.6c2.13-1.94,4.88-5.17,8.49-9.09,7.16-7.98,16.16-20.31,26.48-35.46,10.15-15.35,22.01-33.25,34.7-52.43,12.79-19.23,27.12-39.42,42.83-58.72,7.95-9.56,16.21-18.91,24.9-27.65,8.52-8.88,17.82-16.77,27.03-24.12,9.26-7.3,18.92-13.48,28.44-18.68,4.75-2.6,9.57-4.81,14.19-6.93,4.82-1.74,9.3-3.77,13.87-5.06,8.99-2.91,17.51-4.57,25.08-5.51,3.8-.36,7.33-.79,10.61-1.01,3.3-.03,6.32-.06,9.06-.09,5.45-.25,9.6.72,12.5.84,2.88.28,4.42.43,4.42.43,0,0-1.54.1-4.43.29-2.85.29-7.16.21-12.44,1.02-2.62.35-5.53.75-8.71,1.17-3.13.6-6.51,1.44-10.1,2.23-7.15,1.81-15.03,4.41-23.35,7.81-4.21,1.6-8.31,3.93-12.69,5.95-4.2,2.42-8.66,4.69-12.99,7.47-8.7,5.49-17.4,12.01-26.04,19.22-17.1,14.62-33.74,32.25-48.99,51.12-7.81,9.29-15.21,18.99-22.45,28.56-7.16,9.68-14.22,19.21-21.04,28.43-13.57,18.56-26.41,35.93-38.22,50.26-11.66,14.44-22.75,25.44-30.79,32.68-4.09,3.58-7.48,6.17-9.87,7.8-2.35,1.67-3.62,2.57-3.62,2.57,0,0,1.09-1.09,3.14-3.13Zm-2124.63,44.8c-1.94-2.13-5.17-4.88-9.09-8.5-7.98-7.15-20.31-16.16-35.46-26.48-15.34-10.15-33.24-22-52.42-34.7-19.23-12.78-39.42-27.11-58.72-42.81-9.55-7.96-18.91-16.22-27.65-24.91-8.89-8.52-16.77-17.83-24.11-27.03-7.3-9.26-13.49-18.93-18.69-28.45-2.6-4.74-4.81-9.56-6.93-14.18-1.73-4.81-3.77-9.31-5.06-13.86-2.91-9-4.58-17.52-5.51-25.09-.36-3.8-.79-7.33-1.01-10.61-.03-3.29-.06-6.32-.09-9.06-.25-5.44.72-9.61.84-12.5.28-2.87.43-4.41.43-4.41,0,0,.1,1.54.29,4.42.29,2.86.22,7.17,1.03,12.44.35,2.63.75,5.53,1.17,8.7.6,3.14,1.44,6.52,2.23,10.12,1.81,7.14,4.41,15.02,7.81,23.34,1.6,4.2,3.93,8.31,5.95,12.69,2.42,4.2,4.69,8.65,7.47,12.98,5.49,8.71,12.01,17.41,19.22,26.04,14.61,17.11,32.24,33.74,51.12,48.99,9.29,7.82,18.99,15.2,28.56,22.45,9.67,7.17,19.2,14.22,28.43,21.05,18.56,13.57,35.93,26.4,50.26,38.22,14.45,11.66,25.45,22.74,32.69,30.79,3.59,4.09,6.17,7.46,7.8,9.88,1.67,2.35,2.57,3.6,2.57,3.6,0,0-1.09-1.1-3.13-3.13Zm-412.15,1073.77c-2.88-.12-7.1.2-12.44.43-10.69.59-25.78,2.94-43.79,6.34-18.04,3.67-39.07,7.95-61.61,12.53-22.64,4.55-47.04,8.69-71.79,11.25-12.39,1.13-24.84,1.9-37.16,1.94-12.31.26-24.48-.74-36.17-2.06-11.72-1.39-22.92-3.84-33.32-6.9-5.2-1.51-10.17-3.36-14.93-5.12-4.63-2.18-9.24-3.92-13.38-6.23-8.42-4.31-15.62-9.16-21.63-13.84-2.94-2.44-5.73-4.63-8.21-6.8-2.36-2.3-4.52-4.42-6.48-6.33-4.02-3.68-6.28-7.31-8.24-9.44-1.83-2.23-2.81-3.42-2.81-3.42,0,0,1.16,1.01,3.33,2.93,2.23,1.81,5.22,4.91,9.52,8.06,2.11,1.61,4.44,3.39,6.99,5.32,2.64,1.81,5.63,3.6,8.72,5.58,6.33,3.77,13.75,7.51,22.04,10.98,4.09,1.84,8.64,3.1,13.17,4.76,4.68,1.26,9.44,2.8,14.46,3.9,10.04,2.29,20.8,3.82,32.01,4.83,22.43,1.77,46.65,1.06,70.79-1.5,12.09-1.04,24.18-2.67,36.07-4.31,11.91-1.78,23.64-3.52,34.99-5.22,22.73-3.52,44.09-6.74,62.57-8.52,18.46-1.97,34.07-1.9,44.88-1.33,5.42.35,9.65.91,12.5,1.46,2.85.47,4.36.73,4.36.73,0,0-1.54,0-4.42,0Zm459.69,1050.44c-2.13,1.94-4.88,5.17-8.49,9.09-7.15,7.98-16.16,20.31-26.47,35.46-10.16,15.34-22.01,33.25-34.7,52.43-12.79,19.23-27.12,39.4-42.82,58.71-7.96,9.56-16.22,18.91-24.91,27.64-8.52,8.89-17.83,16.78-27.03,24.12-9.26,7.3-18.92,13.49-28.44,18.69-4.74,2.59-9.57,4.79-14.18,6.92-4.81,1.74-9.3,3.76-13.86,5.06-9,2.91-17.52,4.58-25.09,5.51-3.8.36-7.33.78-10.62,1.01-3.29.02-6.32.06-9.05.09-5.44.24-9.6-.73-12.5-.84-2.87-.29-4.41-.44-4.41-.44,0,0,1.54-.1,4.43-.29,2.85-.29,7.17-.22,12.44-1.03,2.63-.35,5.54-.74,8.7-1.16,3.14-.6,6.52-1.44,10.11-2.22,7.15-1.81,15.02-4.41,23.34-7.82,4.21-1.6,8.32-3.92,12.69-5.94,4.21-2.42,8.66-4.69,12.99-7.47,8.71-5.48,17.4-12.01,26.04-19.22,17.11-14.62,33.75-32.24,49-51.12,7.81-9.29,15.2-18.98,22.45-28.56,7.17-9.68,14.23-19.21,21.05-28.43,13.57-18.56,26.41-35.94,38.22-50.26,11.66-14.45,22.75-25.44,30.79-32.69,4.09-3.59,7.46-6.16,9.88-7.8,2.35-1.67,3.6-2.57,3.6-2.57,0,0-1.08,1.09-3.13,3.13Zm2118.27-41.99c1.94,2.12,5.17,4.88,9.09,8.49,7.98,7.16,20.3,16.16,35.46,26.48,15.34,10.16,33.25,22.01,52.42,34.7,19.23,12.79,39.41,27.12,58.71,42.82,9.55,7.96,18.91,16.22,27.65,24.9,8.88,8.52,16.78,17.82,24.12,27.03,7.3,9.26,13.49,18.92,18.68,28.44,2.6,4.75,4.81,9.57,6.92,14.19,1.76,4.81,3.78,9.3,5.07,13.86,2.9,9,4.56,17.52,5.5,25.08.36,3.81.79,7.34,1,10.61.04,3.3.08,6.33.11,9.06.24,5.45-.73,9.6-.84,12.5-.29,2.87-.43,4.41-.43,4.41,0,0-.11-1.54-.29-4.42-.3-2.86-.22-7.16-1.03-12.44-.35-2.63-.74-5.54-1.17-8.7-.6-3.14-1.43-6.52-2.22-10.12-1.81-7.14-4.41-15.02-7.82-23.35-1.6-4.2-3.93-8.31-5.95-12.69-2.42-4.2-4.69-8.65-7.48-12.98-5.48-8.71-12-17.41-19.21-26.04-14.61-17.11-32.24-33.74-51.12-48.99-9.29-7.82-18.99-15.21-28.56-22.45-9.67-7.17-19.2-14.23-28.43-21.05-18.55-13.57-35.94-26.41-50.26-38.21-14.45-11.67-25.44-22.75-32.7-30.8-3.59-4.08-6.17-7.47-7.8-9.87-1.68-2.35-2.56-3.61-2.56-3.61,0,0,1.09,1.09,3.12,3.14ZM2451,884.31c-4.55-22.63-8.69-47.04-11.25-71.79-1.13-12.38-1.9-24.83-1.94-37.15-.26-12.31.74-24.48,2.06-36.18,1.39-11.7,3.84-22.91,6.9-33.31,1.51-5.2,3.36-10.17,5.14-14.94,2.17-4.64,3.9-9.24,6.21-13.38,4.31-8.42,9.16-15.62,13.84-21.63,2.44-2.94,4.63-5.73,6.79-8.21,2.31-2.35,4.43-4.52,6.34-6.48,3.68-4.02,7.3-6.27,9.44-8.24,2.22-1.83,3.42-2.81,3.42-2.81,0,0-1.02,1.16-2.93,3.33-1.81,2.23-4.92,5.22-8.07,9.52-1.61,2.11-3.39,4.44-5.33,6.98-1.79,2.65-3.59,5.63-5.58,8.73-3.77,6.33-7.5,13.75-10.98,22.03-1.84,4.1-3.1,8.65-4.76,13.18-1.26,4.69-2.8,9.44-3.9,14.47-2.28,10.04-3.81,20.8-4.82,32.01-1.77,22.43-1.07,46.65,1.49,70.79,1.05,12.09,2.67,24.18,4.32,36.06,1.77,11.92,3.52,23.64,5.22,34.99,3.52,22.73,6.73,44.08,8.51,62.56,1.97,18.47,1.91,34.07,1.33,44.88-.34,5.43-.91,9.65-1.46,12.5-.47,2.85-.73,4.37-.73,4.37,0,0,0-1.55,0-4.43.13-2.88-.21-7.1-.43-12.43-.59-10.69-2.93-25.79-6.35-43.8-3.66-18.03-7.95-39.07-12.53-61.62Zm49,542.37c18.48,0,33.46,14.99,33.46,33.46s-14.98,33.47-33.46,33.47-33.46-14.99-33.46-33.47,14.98-33.46,33.46-33.46Zm-762.88,306.78c13.07-13.06,34.26-13.06,47.33,0,13.07,13.07,13.07,34.27,0,47.33-13.07,13.07-34.26,13.07-47.33,0-13.07-13.06-13.07-34.26,0-47.33Zm-276.98,733.07c18.49,0,33.47,14.98,33.47,33.46s-14.98,33.47-33.47,33.47-33.47-14.99-33.47-33.47,14.98-33.46,33.47-33.46Zm964.16,1171.76c-258.22-17.82-493.38-120.83-677.44-281.13-40.43-35.21-78.4-73.18-113.59-113.61-162.19-186.28-265.7-424.87-281.66-686.74-1.43-23.48-2.24-47.12-2.24-70.96,0,0,28.49,1015.97,1155.26,1155.28-27.01,0-53.78-1.01-80.33-2.84Zm-684.89-428.31c13.07-13.07,34.27-13.07,47.33,0,13.07,13.07,13.07,34.25,0,47.33-13.06,13.07-34.26,13.07-47.33,0-13.06-13.07-13.06-34.26,0-47.33Zm727.13,329.86c0-18.48,14.99-33.46,33.47-33.46s33.46,14.98,33.46,33.46-14.98,33.47-33.46,33.47-33.47-14.99-33.47-33.47Zm82.45,575.83c4.56,22.64,8.7,47.04,11.25,71.8,1.14,12.39,1.9,24.84,1.94,37.16.26,12.31-.74,24.47-2.06,36.17-1.39,11.71-3.85,22.92-6.9,33.32-1.52,5.2-3.36,10.16-5.13,14.93-2.16,4.64-3.9,9.25-6.21,13.38-4.32,8.42-9.16,15.62-13.84,21.63-2.45,2.94-4.63,5.74-6.8,8.21-2.31,2.36-4.42,4.52-6.34,6.48-3.68,4.03-7.3,6.28-9.43,8.24-2.23,1.84-3.43,2.81-3.43,2.81,0,0,1.02-1.15,2.93-3.33,1.82-2.22,4.92-5.22,8.06-9.52,1.61-2.11,3.4-4.44,5.34-6.98,1.8-2.65,3.59-5.62,5.57-8.72,3.78-6.33,7.51-13.75,10.98-22.04,1.84-4.1,3.11-8.65,4.77-13.18,1.26-4.69,2.8-9.44,3.9-14.47,2.28-10.04,3.81-20.8,4.83-32,1.77-22.44,1.05-46.66-1.5-70.8-1.05-12.09-2.67-24.17-4.32-36.06-1.77-11.91-3.52-23.64-5.21-34.99-3.53-22.72-6.75-44.08-8.53-62.56-1.97-18.46-1.91-34.07-1.33-44.89.35-5.42.91-9.64,1.46-12.49.48-2.85.74-4.37.74-4.37,0,0,0,1.54,0,4.43-.13,2.87.2,7.1.43,12.43.59,10.69,2.94,25.79,6.34,43.8,3.67,18.03,7.95,39.08,12.53,61.61Zm708.32-855.1c-13.06,13.07-34.25,13.07-47.32,0-13.07-13.07-13.07-34.26,0-47.33,13.07-13.07,34.26-13.07,47.32,0,13.08,13.07,13.08,34.25,0,47.33Zm-757.31,178.01c-517.55,0-938.59-421.05-938.59-938.59s421.05-938.6,938.59-938.6,938.6,421.05,938.6,938.6-421.05,938.59-938.6,938.59Zm714.07-1704.67c13.06-13.06,34.25-13.06,47.33,0,13.07,13.07,13.07,34.26,0,47.33-13.07,13.07-34.27,13.07-47.33,0-13.07-13.07-13.07-34.26,0-47.33Zm325.78,799.55c-18.48,0-33.46-14.98-33.46-33.46s14.98-33.48,33.46-33.48,33.48,14.99,33.48,33.48-15,33.46-33.48,33.46Zm-1039.84-1188.74c27.01,0,53.78,1.01,80.33,2.84,258.22,17.82,493.38,120.83,677.44,281.13,40.43,35.21,78.4,73.18,113.59,113.61,162.19,186.28,265.7,424.87,281.66,686.74,1.43,23.48,2.24,47.12,2.24,70.96,0,0-28.49-1015.97-1155.26-1155.28Zm1866.48,1150.31c-2.22-1.82-5.21-4.91-9.51-8.06-2.11-1.61-4.45-3.39-6.99-5.33-2.65-1.8-5.62-3.59-8.72-5.58-6.33-3.77-13.74-7.51-22.04-10.98-4.1-1.84-8.65-3.1-13.17-4.76-4.69-1.26-9.45-2.8-14.47-3.9-10.05-2.28-20.8-3.83-32.01-4.83-22.44-1.76-46.65-1.05-70.79,1.51-12.1,1.05-24.17,2.67-36.07,4.31-11.91,1.78-23.65,3.52-34.99,5.22-22.73,3.53-44.09,6.74-62.57,8.53-18.45,1.96-34.07,1.9-44.88,1.33-5.43-.35-9.64-.91-12.49-1.46-2.86-.47-4.37-.73-4.37-.73,0,0,1.53,0,4.42,0,2.88.12,7.1-.21,12.44-.43,10.68-.59,25.79-2.94,43.79-6.35,18.04-3.67,39.07-7.95,61.62-12.53,22.63-4.56,47.04-8.69,71.8-11.25,12.38-1.13,24.83-1.9,37.15-1.94,12.32-.26,24.47.74,36.18,2.06,11.7,1.39,22.9,3.85,33.32,6.9,5.19,1.51,10.15,3.36,14.93,5.14,4.64,2.16,9.24,3.9,13.37,6.21,8.43,4.31,15.62,9.16,21.64,13.84,2.94,2.44,5.73,4.63,8.21,6.8,2.36,2.3,4.52,4.42,6.47,6.33,4.03,3.68,6.28,7.31,8.24,9.43,1.84,2.24,2.81,3.43,2.81,3.43,0,0-1.15-1.02-3.33-2.93Z"/>
  </g>
</svg>