<?xml version="1.0" encoding="UTF-8"?>
<svg id="uuid-7f718cb2-c8d0-48f3-8ea1-99449fb34b7d" data-name="Ñëîé 1" xmlns="http://www.w3.org/2000/svg" viewBox="0 0 850.39 850.39">
  <defs>
    <style>
      .uuid-aa1ad395-837a-4cca-98b2-a3c38ec749ea {
        fill: #fefefe;
      }

      .uuid-aa1ad395-837a-4cca-98b2-a3c38ec749ea, .uuid-64363d7b-107d-48c9-93ce-fe6012ba1e57, .uuid-e51aca9f-8487-4936-8ba8-74d35b6b60ee, .uuid-eb2320f6-7f77-4527-96a3-870132f248b0 {
        stroke-width: 0px;
      }

      .uuid-64363d7b-107d-48c9-93ce-fe6012ba1e57 {
        fill: #e0ab1f;
      }

      .uuid-e51aca9f-8487-4936-8ba8-74d35b6b60ee {
        fill: #180b15;
      }

      .uuid-eb2320f6-7f77-4527-96a3-870132f248b0 {
        fill: #e03b1f;
      }
    </style>
  </defs>
  <rect class="uuid-aa1ad395-837a-4cca-98b2-a3c38ec749ea" x="0" width="850.39" height="850.39"/>
  <g>
    <path class="uuid-e51aca9f-8487-4936-8ba8-74d35b6b60ee" d="m580.5,237c-21.2,0-38.45,17.24-38.45,38.36s17.25,38.45,38.45,38.45,38.35-17.25,38.35-38.45-17.24-38.36-38.35-38.36h0Zm0,53.06h0c-8.1,0-14.7-6.6-14.7-14.7s6.59-14.7,14.7-14.7,14.7,6.6,14.7,14.7-6.6,14.7-14.7,14.7h0Z"/>
    <path class="uuid-e51aca9f-8487-4936-8ba8-74d35b6b60ee" d="m580.5,314.75c-21.77,0-39.39-17.62-39.39-39.39s17.62-39.39,39.39-39.39,39.39,17.72,39.39,39.39-17.72,39.39-39.39,39.39h0Zm0-76.8h0c-20.64,0-37.41,16.77-37.41,37.41s16.78,37.41,37.41,37.41,37.41-16.77,37.41-37.41-16.77-37.41-37.41-37.41h0Zm0,53.15h0c-8.67,0-15.73-7.07-15.73-15.74s7.06-15.64,15.73-15.64,15.74,6.97,15.74,15.64-7.07,15.74-15.74,15.74h0Zm0-29.4h0c-7.54,0-13.76,6.13-13.76,13.67s6.22,13.76,13.76,13.76,13.67-6.22,13.67-13.76-6.12-13.67-13.67-13.67h0Z"/>
    <path class="uuid-e51aca9f-8487-4936-8ba8-74d35b6b60ee" d="m425.2,537.15c-21.2,0-38.45,17.25-38.45,38.36s17.25,38.45,38.45,38.45,38.35-17.25,38.35-38.45-17.24-38.36-38.35-38.36h0Zm0,53.06h0c-8.1,0-14.7-6.6-14.7-14.7s6.6-14.7,14.7-14.7,14.7,6.6,14.7,14.7-6.6,14.7-14.7,14.7h0Z"/>
    <path class="uuid-e51aca9f-8487-4936-8ba8-74d35b6b60ee" d="m425.2,614.91c-21.77,0-39.39-17.63-39.39-39.4s17.62-39.39,39.39-39.39,39.39,17.72,39.39,39.39-17.72,39.4-39.39,39.4h0Zm0-76.81h0c-20.64,0-37.41,16.78-37.41,37.41s16.78,37.41,37.41,37.41,37.32-16.77,37.32-37.41-16.77-37.41-37.32-37.41h0Zm0,53.15h0c-8.67,0-15.73-7.07-15.73-15.74s7.07-15.64,15.73-15.64,15.64,6.97,15.64,15.64-7.07,15.74-15.64,15.74h0Zm0-29.4h0c-7.63,0-13.76,6.12-13.76,13.66s6.12,13.76,13.76,13.76,13.67-6.22,13.67-13.76-6.12-13.66-13.67-13.66h0Z"/>
    <path class="uuid-eb2320f6-7f77-4527-96a3-870132f248b0" d="m467.23,448l-22.71-22.8,22.71-22.81c5.37-5.28,5.37-13.95,0-19.32-5.28-5.28-13.95-5.28-19.32,0l-22.71,22.81-22.81-22.81c-5.37-5.28-13.94-5.28-19.31,0-5.37,5.37-5.37,14.04,0,19.32l22.71,22.81-22.71,22.8c-5.37,5.28-5.37,13.95,0,19.32,2.63,2.63,6.12,3.96,9.61,3.96s7.06-1.32,9.71-3.96l22.81-22.81,22.71,22.81c2.64,2.63,6.22,3.96,9.71,3.96s6.98-1.32,9.62-3.96c5.37-5.38,5.37-14.05,0-19.32h0Z"/>
    <path class="uuid-e51aca9f-8487-4936-8ba8-74d35b6b60ee" d="m457.61,472.32c-3.95,0-7.63-1.51-10.36-4.34l-22.05-22.05-22.14,22.05c-2.74,2.83-6.41,4.34-10.37,4.34s-7.54-1.51-10.36-4.34c-5.65-5.75-5.65-14.99,0-20.73l22.05-22.05-22.05-22.05c-5.65-5.75-5.65-14.98,0-20.73,2.83-2.83,6.5-4.33,10.36-4.33s7.63,1.51,10.37,4.33l22.14,22.05,22.05-22.05c2.73-2.83,6.41-4.33,10.36-4.33s7.54,1.51,10.37,4.33c2.73,2.73,4.24,6.41,4.24,10.37s-1.51,7.54-4.24,10.37l-22.05,22.05,22.05,22.05c5.65,5.74,5.65,14.98,0,20.73-2.83,2.83-6.51,4.34-10.37,4.34h0Zm-32.42-29.21h0l23.46,23.46c2.36,2.36,5.56,3.68,8.95,3.68s6.5-1.32,8.95-3.68c4.9-4.89,4.9-12.91,0-17.9l-23.46-23.46,23.46-23.47c2.36-2.45,3.68-5.56,3.68-8.95s-1.32-6.6-3.68-8.95c-2.45-2.45-5.56-3.77-8.95-3.77s-6.59,1.32-8.95,3.77l-23.46,23.46-23.56-23.46c-2.36-2.45-5.56-3.77-8.95-3.77s-6.51,1.32-8.95,3.77c-4.9,4.9-4.9,12.91,0,17.9l23.56,23.47-23.56,23.46c-4.9,5-4.9,13.01,0,17.9,2.45,2.36,5.66,3.68,8.95,3.68s6.59-1.32,8.95-3.68l23.56-23.46Z"/>
    <path class="uuid-eb2320f6-7f77-4527-96a3-870132f248b0" d="m314.37,298.16l-22.81-22.8,22.81-22.71c5.28-5.37,5.28-14.04,0-19.32-5.37-5.37-14.04-5.37-19.32,0l-22.81,22.71-22.81-22.71c-5.28-5.37-13.95-5.37-19.32,0-5.28,5.28-5.28,13.95,0,19.32l22.81,22.71-22.81,22.8c-5.28,5.37-5.28,13.95,0,19.32,2.74,2.64,6.22,3.96,9.71,3.96s6.98-1.32,9.62-3.96l22.81-22.8,22.81,22.8c2.63,2.64,6.12,3.96,9.61,3.96s6.98-1.32,9.71-3.96c5.28-5.37,5.28-13.95,0-19.32h0Z"/>
    <path class="uuid-e51aca9f-8487-4936-8ba8-74d35b6b60ee" d="m304.67,322.48c-3.96,0-7.63-1.51-10.37-4.34l-22.05-22.05-22.05,22.05c-2.83,2.83-6.5,4.34-10.37,4.34s-7.63-1.51-10.36-4.34c-2.83-2.73-4.33-6.41-4.33-10.37s1.51-7.54,4.33-10.37l22.05-22.05-22.05-22.05c-5.75-5.65-5.75-14.98,0-20.73,2.73-2.73,6.41-4.24,10.36-4.24s7.54,1.51,10.37,4.24l22.05,22.05,22.05-22.05c2.74-2.73,6.41-4.24,10.37-4.24s7.63,1.51,10.36,4.24c2.74,2.83,4.34,6.5,4.34,10.37s-1.6,7.63-4.34,10.37l-22.05,22.05,22.05,22.05c5.75,5.75,5.75,15.08,0,20.73-2.73,2.83-6.4,4.34-10.36,4.34h0Zm-32.41-29.21h0l23.46,23.46c2.36,2.45,5.56,3.77,8.95,3.77s6.6-1.32,8.95-3.77c4.9-4.9,4.9-12.91,0-17.91l-23.46-23.46,23.46-23.47c2.36-2.36,3.68-5.56,3.68-8.95s-1.32-6.5-3.68-8.95c-2.36-2.36-5.56-3.68-8.95-3.68s-6.59,1.32-8.95,3.68l-23.46,23.46-23.47-23.46c-2.45-2.36-5.56-3.68-8.95-3.68s-6.6,1.32-8.95,3.68c-4.99,4.99-4.99,13,0,17.9l23.47,23.47-23.47,23.46c-2.45,2.45-3.77,5.65-3.77,8.95s1.32,6.6,3.77,8.95c2.36,2.45,5.56,3.77,8.95,3.77s6.5-1.32,8.95-3.77l23.47-23.46Z"/>
    <path class="uuid-64363d7b-107d-48c9-93ce-fe6012ba1e57" d="m523.11,628.57v-265.47h136.65v-169.16H190.55v462.53h332.56v-27.89Zm0-406.74h108.66v108.66h-108.66v-108.66Zm-195.92,406.74h-108.65v-108.66h108.65v108.66Zm0-141.26h-108.65v-124.21h108.65v124.21Zm0-156.82h-108.65v-108.66h108.65v108.66Zm163.31,298.08h-130.71v-108.66h130.71v108.66Zm0-141.26h-130.71v-124.21h130.71v124.21Zm-130.71-156.82h0v-108.66h130.71v108.66h-130.71Z"/>
    <path class="uuid-e51aca9f-8487-4936-8ba8-74d35b6b60ee" d="m524.14,657.5H189.61V192.9h471.18v171.23h-136.64v293.37Zm-332.56-1.98h330.58v-293.37h136.55v-167.28H191.58v460.64Zm299.96-25.92h-132.78v-110.73h132.78v110.73Zm-130.71-2.07h128.73v-106.68h-128.73v106.68Zm-32.61,2.07h-110.73v-110.73h110.73v110.73Zm-108.75-2.07h106.68v-106.68h-106.68v106.68Zm272.06-139.28h-132.78v-126.09h132.78v126.09Zm-130.71-1.98h128.73v-122.14h-128.73v122.14Zm-32.61,1.98h-110.73v-126.09h110.73v126.09Zm-108.75-1.98h106.68v-122.14h-106.68v122.14Zm413.32-154.74h-110.63v-110.64h110.63v110.64Zm-108.66-1.98h106.68v-106.68h-106.68v106.68Zm-32.6,1.98h-132.78v-110.64h132.78v110.64Zm-130.71-1.98h128.73v-106.68h-128.73v106.68Zm-32.61,1.98h-110.73v-110.64h110.73v110.64Zm-108.75-1.98h106.68v-106.68h-106.68v106.68Z"/>
    <rect class="uuid-e51aca9f-8487-4936-8ba8-74d35b6b60ee" x="561.18" y="462.43" width="85.76" height="147.58"/>
    <path class="uuid-e51aca9f-8487-4936-8ba8-74d35b6b60ee" d="m648.07,611.13h-88.02v-149.94h88.02v149.94Zm-85.76-2.26h83.5v-145.32h-83.5v145.32Z"/>
    <polygon class="uuid-eb2320f6-7f77-4527-96a3-870132f248b0" points="646.94 456.2 623.94 419.36 584.08 419.36 561.18 456.2 646.94 456.2"/>
    <path class="uuid-e51aca9f-8487-4936-8ba8-74d35b6b60ee" d="m648.92,457.34h-89.81l24.4-39.12h40.99l24.41,39.12Zm-85.76-2.36h81.71l-21.58-34.5h-38.54l-21.58,34.5Z"/>
    <polygon class="uuid-e51aca9f-8487-4936-8ba8-74d35b6b60ee" points="604.06 386.84 588.7 411.34 619.32 411.34 604.06 386.84"/>
    <path class="uuid-e51aca9f-8487-4936-8ba8-74d35b6b60ee" d="m621.02,412.29h-34.02l17.05-27.23,16.96,27.23Zm-30.54-1.88h27.14l-13.57-21.77-13.57,21.77Z"/>
    <path class="uuid-eb2320f6-7f77-4527-96a3-870132f248b0" d="m561.18,615.75v24.69c0,7.06,5.75,12.91,12.91,12.91h59.94c7.07,0,12.91-5.84,12.91-12.91v-24.69h-85.76Z"/>
    <path class="uuid-e51aca9f-8487-4936-8ba8-74d35b6b60ee" d="m634.03,654.48h-59.94c-7.82,0-14.04-6.31-14.04-14.04v-25.82h88.02v25.82c0,7.73-6.31,14.04-14.04,14.04h0Zm-71.72-37.51h0v23.47c0,6.5,5.28,11.78,11.78,11.78h59.94c6.41,0,11.78-5.28,11.78-11.78v-23.47h-83.5Z"/>
  </g>
</svg>