<?xml version="1.0" encoding="UTF-8"?>
<svg id="uuid-7784f0f8-180d-4238-af34-7ee41964f0d8" data-name="&amp;lt;Layer&amp;gt;" xmlns="http://www.w3.org/2000/svg" viewBox="0 0 1998.5 2511.17">
  <defs>
    <style>
      .uuid-2a7c9b68-f280-4bf9-9c68-3f5c8ec5fea9 {
        fill: #1e2749;
      }

      .uuid-2a7c9b68-f280-4bf9-9c68-3f5c8ec5fea9, .uuid-ac4daca8-0d15-49e3-8abc-46de6714e2a7 {
        stroke-width: 0px;
      }

      .uuid-ac4daca8-0d15-49e3-8abc-46de6714e2a7 {
        fill: #fafaff;
      }
    </style>
  </defs>
  <rect class="uuid-ac4daca8-0d15-49e3-8abc-46de6714e2a7" x="0" width="1998.5" height="2511.17"/>
  <g>
    <path class="uuid-2a7c9b68-f280-4bf9-9c68-3f5c8ec5fea9" d="m1592.38,1904.21c-1.08-122.39-2.26-244.78-3.34-367.18-1.08-123.42-2.05-246.85-3.13-370.27-1.07-122.91-2.25-245.82-3.31-368.72-.63-73.23-1.15-146.47-1.68-219.7-.65-91.16-1.25-182.32-1.91-273.48-.05-6.53,1.34-17.21-4.61-21.64-4.98-3.7-15.16-1.84-21.09-1.89-8.34-.06-16.69-.13-25.03-.2-.25-5.92,2.16-21.32-4.55-24.19-1.9-.81-4.21-.61-5.94.52-2.94,1.92-3.76,5.79-4.32,9.26-.82,5.06-1.4,10.19-2.29,15.21-11.79,1.32-23.23,2.47-34.28-.41-4.24-9.9,1.81-22.97-10.54-28.57-7.44,2.23-6.92,7.41-6.73,12.66.19,5.41-.03,10.84-.08,17.1-14.77-.11-28.33-.22-43.7-.34.05-6.74.2-12.75.12-18.76-.06-5-1-15.76-8.89-13.27-5,1.58-5.69,8.72-5.78,13.12-.04,1.87.91,19.18-1.77,19.16-12.28-.1-24.75-.19-38.92-.3.06-7.59.56-14.67.04-21.67-.5-6.66-3.81-10.47-12.67-6.76-1,8.87-2.06,18.3-3.27,29.09-12.31-.1-24.21-.19-36.83-.29-.68-7.19-1.37-14.37-2.05-21.56-.28-3,.26-5.49-2.44-7.08-2.23-1.31-5.59-.98-7.79.18-3.18,1.69-3.41,4.86-3.53,8.21-.08,2.16,2.13,21.5-1.58,21.47-12.78-.1-25.79-.2-39.98-.31.05-6.96.11-13.91.16-20.87.04-4.92-1.21-10.34-7.87-8.93-5.84,1.23-6.5,8.63-7.16,13.41-.74,5.38-.81,10.86-1.21,16.81-14.52-.11-27.52-.22-39.95-.31-5.36-10.14,2.12-22.78-8.02-30.36-8.67,1-8.71,7.02-8.97,12.62-.28,5.91-.14,11.84-.2,18.27-14.28-.11-26.76-.21-38.75-.3-2.86-5.95,1.98-32.2-11.27-27.82-7.84,2.59-3.2,29.14-7.95,29.1-13.19-.1-26.81-.21-41.26-.32-.72-5.97-1.4-11.52-2.05-17.06-.68-5.78-.92-15.36-9.41-12.95-5.42,1.53-5.42,8.37-4.81,12.95.44,3.3,1.28,6.63,1.07,9.98-.09,1.45-1.17,7.98-3.36,8-12.22.15-24.82,1.27-36.5-.22-4.27-8.59-.53-18.93-5.22-27.34-4.9-8.8-11.88.91-12.27,7.15-.11,1.81,1.57,20.3-.47,20.28-13.03-.1-26.01-.2-39.82-.31-.28-7.31-.35-13.89-.84-20.43-.4-5.36-.54-17.7-9.58-14.62-5.13,1.75-5.29,9.68-5.26,14.1.01,2.08,1.32,21.52-1.8,21.49-12.54-.12-25.04,2.6-37.32-.56-.27-7.26-.54-14.51-.81-21.77-.19-5.06.14-13.18-7.36-12.58-7.37.58-6.07,10.03-6.54,15.2-.16,1.76-1.67,20.89-1.93,20.88-14.26-.11-26.88-.21-39.86-.31-2.15-6.32-1.75-13.03-1.39-19.59.28-4.99,2.18-13.44-2.86-16.7-2.31-1.49-5.5-1.45-7.77.09-4.51,3.06-3.3,11-3.54,15.69-.09,1.77-.99,20.84-1.13,20.84-15.69-.12-29.75-.23-43.98-.35-1.46-6.52,3.35-38.7-9.86-33.83-5.92,2.19-5.13,9.96-5.47,14.98-.11,1.64-1.15,19.35-1.32,19.34-12.93-.1-24.89-.19-36.44-.28-3.25-6.87-1.91-14.7-2.48-22.02-.44-5.66-1.38-14.04-8.92-12.91-7.81,1.17-6.09,9.82-5.58,15.66.17,1.99,1.82,20.74-1.93,20.53-13.4-.75-26.98,2.63-40.29-.63-2.52-7.29-1.27-15.04-1.59-22.58-.23-5.42-1.59-17.29-9.51-15.45-5.5,1.28-5.36,6.93-5.28,11.46.17,9.02,3,18.19-1.12,27.57-12.9-.1-25.47-.2-38.69-.3-1.49-7.9-1.22-15.97-1.96-23.94-.51-5.5-.65-16.53-9.07-14.52-7.06,1.69-4.96,10.9-5,16.23-.01,1.91-.18,22.46-.18,22.46-13.75-.11-26.7-.21-39.63-.31-.98-7.09-1.97-14.19-2.95-21.28-.7-5.07.03-13.63-7.55-12.45-7.18,1.12-5.27,9.66-5.31,14.88-.01,1.69-.16,19.93-.16,19.93-14.5-.11-27.04-.21-40.27-.31-.65-7.54-.87-14.7-1.97-21.71-.54-3.48,1.14-9.02-1.26-11.96-1.88-2.29-6.45-2.78-8.92-1.49-5.24,2.74-3.95,10.52-3.75,15.34.29,7.06.97,14.27-1.43,21.07-13.05-.28-26,1.91-40.15-1.11.05-6.74.24-12.81.11-18.86-.13-5.73,1.76-20.3-8.49-16.92-6.36,2.1-5.04,10.6-5.29,15.79-.09,1.76-.9,20.91-1.03,20.91-13.81-.11-26.31-.21-38.52-.3-3.39-7.1-1.85-15.08-1.47-22.61.28-5.45.65-18.59-8.6-15.05-6.26,2.4-5.73,12.31-5.76,17.66-.01,2.16.33,20.25-3.18,20.22-12.73-.1-25.68-.2-39.04-.31-.38-8.23,0-15.47-1.22-22.43-.99-5.62,3.68-18.92-7.18-16.58-7.78,1.68-7.44,11.58-7.3,17.69.05,2.15,1.42,22.03-1.6,22.16-10.91.44-21.6.95-32.29,1.25-1.92.05-3.86-.73-7.42-1.46-1-.21-1.16-25.08-1.28-27.56-.18-3.95.85-8.35-2.73-10.72-2.4-1.6-6.56-2.74-9.02-.68-2.83,2.37-3.17,9.78-3.38,13.13-.16,2.64.93,28.59-1.96,28.57-19.54-.15-38.79-.3-59.4-.47-1.01,8.77-2.44,15.73-2.51,22.69-.25,27.14.02,54.29-.07,81.43-.74,225.87-1.47,451.74-2.29,677.62-1.04,287.85-2.13,575.69-3.23,863.54-.38,99.37-.9,198.73-1.24,298.09-.02,6.37-1.45,14.57,2.11,20.28.36.57.78,1.08,1.27,1.53,5.56,5.14,18.83,2.39,25.5,2.41,146.99.31,293.99.69,440.98.88,140.33.18,280.67.11,421,.26,85.03.09,170.05.53,255.08.57,75.29.03,150.57-.28,225.86-.4,6.89-.01,12.22-.81,18.5-3.44,6.22-2.61,4.81-6.87,4.88-12.72.07-5.62.13-11.24.09-16.86-.87-108.06-1.75-216.12-2.7-324.18Zm-12.37,342.06c-454.36-.19-908.86-.39-1365.85-.58,2.46-646.91,4.92-1292.56,7.38-1939.59,9.2-.25,17.24-.57,25.29-.66,7.65-.08,15.3.09,24.94.17.64,9.57,1.24,18.54,1.8,26.91-9.39,15.14-9.15,23.26.43,27.76,12.11,5.69,18.65-5.96,17.59-16.76-.42-4.32-1.04-8.62-1.56-12.93-.25-2.08-2.47-24.32-2.93-24.32,14.68.12,27.16.21,40.92.32.81,10.97,1.62,22.04,2.45,33.26-1.79,3.03-4.05,5.92-5.31,9.19-2.59,6.69-.77,12.96,4.44,16.37,5.24,3.43,10.73,3.44,15.76-.28,5.23-3.86,6.76-10.02,3.91-15.11-7.6-13.58-3.86-27.93-5.13-43.61,13.41-1.87,26.23-1.85,39.86-.12-.07,9.34-.14,17.91-.22,27.65-1.24,1.54-3.22,3.82-5,6.26-4.21,5.77-3.9,11.58.82,16.76,4.26,4.68,9.75,5.43,15.47,2.91,5.85-2.58,9.02-8.35,6.58-15.42-4.37-12.66-2.22-25.02-1.07-39.03,13.11.1,25.55.2,38.58.3,1.37.01.39,23.55-.04,25.8-1.24,6.51-5.76,12.73-4.19,19.58,1.76,7.64,10.19,9.47,16.53,6.31,5.21-2.6,6.39-7.43,5.6-13.08-1.05-7.54-1.89-15.12-2.42-22.71-.35-5.02,0-10.1.05-15.82,14.27-2.82,27.28-1.81,41.44-1.24-.08,10.64-.16,20.64-.25,31.54-2.13,2.53-4.73,5.61-6.88,8.16-3.39,4.02.05,11.28,4.1,13.21,4.11,1.96,9.31,1.13,13.15-1.08,5.38-3.09,3.98-9.46,4.3-15.03.18-3.04,1.85-36.51,2.12-36.51,13.37.11,25.88.2,40.03.31.33,7.1.67,14.53.99,21.28-8.84,13.4-9.39,19.66-2.61,24.68,7.67,5.69,17.2-1.55,18.42-9.95.44-3.01-1.69-36.59-1.53-36.59,14.71.11,27.75.22,41.82.33-.06,7.06-.11,14.04-.17,22.03-.02,2.28-4.33,5.52-5.27,7.77-3.65,8.71.82,16.89,10.14,17.68,7.76-2.4,10.82-7.24,10.55-15.09-.37-10.67.05-21.38.15-33.35,13.58.11,26.49.21,40.28.32-.07,8.34-.13,15.91-.2,25.22,0,1.05-2.23,2.93-2.73,3.89-.67,1.3-1.16,3.01-1.52,4.42-1.09,4.22-1,10.34,2.01,13.79,6.91,7.92,17.46-2.33,18.08-9.94.27-3.28.12-38.3.3-38.3,14.08.11,27.23.21,40.98.32,4.23,6.13.61,13.54,2.47,20.18-1.91,3-3.75,5.46-5.13,8.14-3.12,6.08-2.87,11.93,2.43,16.74,4.76,4.32,10.2,4.37,15.63,1.33,5.58-3.12,8.45-9.35,4.93-15.89-5.34-9.94-2.97-19.78-3.42-30.81,12.53.1,24.05.19,36.8.29-.06,7.97-.13,15.95-.2,26-3.14,4.76-10.05,11.2-2.71,19.77,2.3,2.68,5.03,3.44,8.44,2.76,8.22-1.64,10.33-9.26,10.38-16.59.08-10.77.17-21.54.25-32.3,15.52.12,29.95.24,45.23.35.41,6.04.78,11.54,1.11,16.52.16,2.4-4.32,7.92-5.21,10.55-.89,2.62-1.62,5.58-.96,8.34,1.83,7.66,13.65,8.89,19.54,5.6,7.25-4.04,5.14-10.78,2.79-17.46-2.79-7.94-3.12-15.77-1.25-24.88,13.4.1,26.4.21,40.09.31-.05,6.66-.1,12.68-.15,19.07-.01,1.9-3.99,4.76-4.92,6.43-1.06,1.9-1.14,3.7-1.24,5.91-.18,4.28-.12,9.61,4.05,12.08,1.83,1.08,3.97.96,6.01.72,1.44-.17,8.49-.98,9.07-2.14,6.46-12.87-.66-27.83,4.47-42.56,11.96.09,24.4.19,38.01.3.48,6.11.94,12.09,1.37,17.59-2.28,4.67-4.27,8.75-6.03,12.35.48,8.25,4.18,13.5,11.86,14.42,3.6.43,7.02-.44,9.6-3.05,5.26-5.32,3.01-12.2,1.14-18.21-2.41-7.75-2.89-15.83-.45-23.64,12.82.1,25.86.2,39.99.31-.06,8.03-.13,16.02-.2,25.05-.01,1.6-3.25,4.98-3.96,6.86-1.23,3.3-1.62,6.76.5,9.81,2.2,3.16,6.07,4.81,9.9,5.18,11.21,1.06,9.78-8.4,9.84-16.3.08-10.46.16-20.93.24-31.39,13.18.1,25.62.2,38.84.3-.06,8.01-.12,15.53-.18,23.44-1.96,2.21-4.18,4.32-5.91,6.77-3.66,5.2-3.6,10.68.42,15.56,3.67,4.45,8.85,5.16,14.01,3.17,5.96-2.3,8.11-7.06,7.9-13.45-.36-10.63-.23-21.28-.22-31.92,0-.95.63-1.9,1.56-4.54,12.77-1.41,26.27-1.19,40.81-.37,1.35,13.98,3.12,27.42-1.29,40.81.87,7.61,5.02,12.06,12.96,13.15,5.72-.42,10.75-4.09,11.84-9.89.63-3.34-.38-6.46-1.88-9.42-.9-1.77-4.67-5.7-4.65-7.43.07-8.98.14-17.54.21-27.12,13.94.11,27.05.21,42.1.33.48,6.55.99,13.48,1.52,20.63-3.25,4.38-8.37,9.01-8.51,14.85-.14,6.27,3.92,10.8,10.09,11.67,7.21,1.02,13.06-1.66,15.17-8.05-1.02-13.38-1.95-25.52-3-39.18,13.55.11,25.97.2,39.51.31-.06,7.31-.12,14.8-.19,23.9-4.23,4.66-11.91,9.82-7.52,19.55,2.37,5.26,6.82,7.8,12.28,7.57,8.08-.34,14.4-8.48,12.86-16.35-1.12-5.73-2.29-10.79-2.14-16.74.17-6.4,1.01-12.77,1.49-19.15,14.06.11,27.13.21,41.92.33.34,8.36.69,16.85,1.01,24.78-8.28,15.35-8.66,21.53-1.91,26.4,5.1,3.68,13.71,3.07,18.53-1.31,5.7-5.19,5.34-10.59-1.57-23.38.08-8.65.15-17.3.23-27.17,11.49.09,22.5.18,34.69.27,1.54,12.61,2.09,25.53-3.19,37.57.78,8.09,4.19,13.19,12.22,13.93,5.59.52,10.21-1.53,12.94-6.48,4.81-8.74-1.82-14.22-6.94-20.38.64-8.05,1.28-16.14,2.01-25.24,13.29.1,25.86.2,39.89.31,1.09,8.62,2.22,17.56,3.27,25.91.2,1.61-6.03,7.82-7.11,9.65-1.26,2.14-2.65,4.67-2.42,7.26.74,8.53,10.75,11.18,16.97,7.57,6.75-3.92,7.62-9.98,7.3-17.32-.47-10.65-1.51-21.26-2.46-34,8.2-.12,15.14-.28,22.08-.3,7.13-.02,14.26.09,22.49.16-.08,9.8-.15,18.73-.21,26.54-2.43,3.06-5.15,6.03-7.36,9.25-5.15,7.53.74,17.06,8.9,18.15,7.85,1.05,12.53-3.12,13.93-8.84-.35-8.92-.91-16.02-.82-23.12.1-7.04.87-14.06,1.4-22.03,12.02.09,22.58.18,34.15.27-.06,8.34-.13,16.84-.21,26.89-4.21,5.24-9.54,12.56-3.35,20.57,2.58,3.34,8.72,5.76,13.06,5.5,8.46-.5,14.79-10.27,11.87-18.23-.97-2.63-5.18-5.61-5.16-8.45.07-9.1.13-17.26.21-26.73,12.03.1,23.4.18,35.88.28.26,3.98.71,7.91.74,11.84.76,94.23,1.43,188.46,2.22,282.69.99,117.27,2.05,234.54,3.12,351.81,1.12,122.91,2.34,245.81,3.41,368.72,1.1,127.52,2.01,255.03,3.12,382.55,1.04,120.35,2.15,240.69,3.38,361.04.62,60.93,1.57,121.86,2.32,182.79.02,1.44-.6,2.89-1.37,6.33Z"/>
    <path class="uuid-2a7c9b68-f280-4bf9-9c68-3f5c8ec5fea9" d="m1798.26,990.59c-.32-18.63-.74-37.25-1.31-55.88-.45-14.57-.96-29.14-1.81-43.7-.4-6.89,1.73-18.21-5.27-22.28-1.65-.96-17.1-3.05-17.06-2.7-.62-4.76-.15-11.81-3.44-15.34-2.66-2.85-6.31-3.6-10.01-4.1-4.82-.64-9.65-1.1-14.5-1.41-9.22-.59-18.46-.65-27.7-.45-5.02.11-10.15-.8-13.27,1.92-1.09.94-1.93,2.32-2.44,4.34-1.2,4.75-.83,9.87-.66,14.72,2.43,70.41-3.99,140.87,3.51,211.36,4.05,38.04,2.01,76.73,2.6,115.13,1,64.51,1.79,129.03,2.89,193.53,1.77,103.41,3.77,206.82,5.59,310.23,1.02,57.85,1.83,115.71,2.87,173.57.14,7.61-1.27,19.81,8.46,21.16,8.2,1.14,16.59,1.04,24.79,0,6.03-.76,19.83-.81,22.65-7.67,1.81-4.4,0-12.84-.06-17.6-.09-6.26-.18-12.52-.27-18.78-.36-25.04-.73-50.07-1.09-75.11-.73-50.04-1.46-100.07-2.18-150.11-.73-50-1.45-100-2.18-150.01-.73-49.99-1.45-99.97-2.18-149.96-.73-49.99-1.45-99.97-2.18-149.96-.25-17.5-.51-35-.76-52.49-.13-8.75-.26-17.5-.38-26.25-.06-4.5-.13-9-.2-13.5-.02-1.46-1.1-12.21-.18-12.75,8.1-4.76,7.41-12.7,7.49-20.41.53-50.7,1.07-101.4,1.65-152.1.04-3.47.49-6.93.8-11.07,3.05-.19,5.32-.33,8.71-.54.47,11.69,1.16,22.32,1.27,32.95.75,72.2,1.36,144.4,2.08,216.6.03,2.87,0,5.74-.16,8.53-.15,2.49.41,4.87,2.47,6.5,2.15,1.7,5.45,1.88,7.63.22,1.37-1.04,2.21-2.66,2.63-4.33,1.57-6.22,1.15-13.43,1.33-19.84.2-7.01.32-14.03.41-21.04.22-17.52.21-35.04.12-52.56-.1-19.61-.33-39.22-.67-58.83Zm-80.81,63.36c-2.03-6.7-1.64-14.67-1.94-21.58-.61-13.98-.84-27.99-.97-41.98-.35-34.81-.06-69.65,1.05-104.45.16-4.95-.16-9.91-.01-14.86.07-2.33.15-4.73.59-7.02.65-3.33,1.01-2.98,4.37-2.97,4.88.03,9.78-.25,14.66-.33,4.85-.09,15.83-2.89,18.83,2.55,1.23,2.24.71,6.71.83,9.2.47,9.84.64,19.71.78,29.56.4,27.49.36,54.98.05,82.46-.24,20.96-.03,42.15-1.88,63.04-.03.33-.31,4.5-.52,4.51-11.8.61-23.91,1.24-35.83,1.86Zm43.07,820.15c-9.45.88-17.5,1.63-27.32,2.55-.3-5.6-.75-11-.84-16.41-.67-39.4-1.21-78.79-1.89-118.19-1.79-103.85-3.71-207.7-5.42-311.55-1.13-68.56-1.95-137.13-2.97-205.7-.68-46.05-1.47-92.1-2.18-138.14-.08-5.08.06-10.17.12-17.17,8.8-.59,17.16-1.16,26.59-1.79.51,5.04,1.19,8.95,1.25,12.86,1.66,112.57,3.18,225.14,4.89,337.71,1.27,83.91,2.69,167.82,4.19,251.72,1.12,62.42,2.49,124.83,3.71,187.25.1,5.08-.06,10.17-.11,16.86Z"/>
    <path class="uuid-2a7c9b68-f280-4bf9-9c68-3f5c8ec5fea9" d="m1633.88,305.95c-.55-.7-1.23-1.33-1.99-1.8-.67-.41-1.4-.69-2.18-.79-1.55-.19-3.18.43-4.21,1.59-2.16,2.44-1.9,8.48-2.2,11.58-.42,4.36-.58,8.74-.62,13.12-.31,30.07-.51,60.15-.58,90.22-.04,15.29.29,30.59.45,45.88.05,4.77.64,9.23,6.3,11.16,8.24-.98,8.58-7.19,8.55-13.53-.23-50.47-.44-100.93-.89-151.4-.02-2.13-1.34-4.42-2.63-6.05Z"/>
    <path class="uuid-2a7c9b68-f280-4bf9-9c68-3f5c8ec5fea9" d="m1701.44,1765.57c-.21-5.28,1.36-12.18-1.62-16.94-1.77-2.82-4.9-3.84-7.8-1.9-3.2,2.13-3.49,5.96-3.36,9.49.45,12.21,1.04,24.42,1.33,36.64.39,16.81.52,33.62.83,50.43.09,5.12.53,13.2,7.63,12.88.43-.02.84-.08,1.24-.17,2.68-.64,4.65-2.91,4.58-5.82-.5-18.72-1.08-37.44-1.75-56.15-.34-9.48-.7-18.96-1.08-28.44Z"/>
    <path class="uuid-2a7c9b68-f280-4bf9-9c68-3f5c8ec5fea9" d="m593.44,1349.26c-10.26-.26-17.81,9.52-25.07,15.36-4.91,3.95-9.81,7.9-14.72,11.85-2.43,1.96-4.87,3.92-7.3,5.88-.98.79-4.9,4.97-6.04,4.87-9.17-.8-15.64-1.79-22.11-1.86-31.2-.33-62.4-.42-93.6-.6-8.12-.05-16.24-.13-22.42-.17-4.97-3.96-13.85-14.88-20.6-8.21-3.24,3.2-1.32,6.92-.46,10.61,1.07,4.57,1.37,9.27,1.31,13.95-.1,8.83-1.53,17.61-1.32,26.45.41,16.86-.52,33.75-1.02,50.62-.49,16.31-1.19,32.61-1.74,47.2-2.64,3.43-8.12,8.25-9.55,12.29-1.38,3.92,3.35,6.77,6.54,7.43,4.68.98,7.03-4.12,11.11-4.09,24.76.19,49.51.39,74.27.58,24.9.2,49.81.39,74.71.59,1.57.01,3.6.4,5.23,0,.93-.23,1.74-.71,2.26-1.66,1.02-1.87.65-4.98.59-7.02-.09-3.05-.17-6.1-.26-9.15-.17-6.1-.35-12.21-.53-18.31-.36-12.25-.72-24.49-1.09-36.73-.6-19.68-1.2-39.36-1.8-59.04,3.86-3.11,8.23-6.59,12.55-10.13,12.66-10.37,25.48-20.55,37.86-31.25,3.37-2.92,7.33-5.69,8.8-10.11,1.83-5.5.33-9.19-5.61-9.35Zm-69.93,51.86c-21.17,17.74-40.55,33.98-61.6,51.63-16.1-17.62-31.03-33.95-47.97-52.49,38.02.3,72.5.57,109.58.86Zm-128.09,60.44c.12-15.86.25-31.73.37-47.59.02-2.01-.17-4.18,0-6.25.29-3.46,1.87-1.2,3.1.39,1.75,2.26,3.8,4.34,5.69,6.5,2.61,2.98,5.22,5.97,7.83,8.95,5.27,6.02,10.53,12.04,15.8,18.06,1.67,1.91,19.93,22.39,19.74,22.57-17.21,15.06-34.61,30.28-52.92,46.31.13-16.31.26-32.62.38-48.93Zm5.69,63.91c20.79-17.86,39.23-33.71,59.08-50.75,18.02,16.75,35.76,33.24,55.57,51.65-39.04-.31-75.19-.59-114.65-.9Zm73.66-62.17c16.5-13.56,32.41-26.64,50.24-41.3,1.34,31.96,2.55,60.93,3.91,93.22-19.23-18.44-36.02-34.54-54.15-51.92Z"/>
    <path class="uuid-2a7c9b68-f280-4bf9-9c68-3f5c8ec5fea9" d="m390.51,990.79c1.4.4,2.89.13,4.33-.01,4.63-.46,10.15.7,14.95.75,5.95.06,11.91.12,17.86.18,11.96.11,23.91.22,35.87.32,13.96.12,27.91.23,41.86.34,12.77.1,26.56,1.65,39.19.03,2.16-.28,4.33-1.04,5.97-2.46.2-.18.4-.36.58-.56,2.98-3.13,2.55-9.04,2.6-13.1.06-5.59-.1-11.18-.35-16.76-.49-10.86-1.4-21.7-1.88-32.56-.96-21.95-1.75-43.91-2.63-66.21,7.96-9.99,15.95-19.96,23.87-29.97,6.66-8.42,13.57-16.68,19.75-25.45,2.37-3.36,4.13-6.3,1.03-9.63-2.52-2.7-6.91-4.74-10.49-2.84-2.18,1.16-4.22,4.72-5.85,6.6-2.11,2.42-4.23,4.85-6.34,7.28-8.64,9.92-17.28,19.85-25.92,29.77-.23,0-.46,0-.69,0-48.51-.38-97.12-1.26-145.56-1.41-1.91,0-3.99.05-5.47,1.25-2.15,1.74-1.97,4.48-1.74,6.89,2.15,23.18-.72,47.63-1.68,70.93-.55,13.4-1.06,26.81-1.3,40.22-.12,6.7-.18,13.41-.14,20.12.02,3.54-2,15.11,2.18,16.31Zm15.91-139.49c41.28-1.47,81.85.03,125.18-.24-17.88,25.82-34.41,49.69-51.53,74.42-11.08-9.2-20.72-19.92-30.64-30.31-4.88-5.11-9.83-10.15-15.07-14.9-3.84-3.47-9.65-10.28-15.11-5.3-4.33,3.95-.81,8.48,1.7,12.13,8.49,12.32,18.92,23.48,29.41,34.1,8.42,8.52,17.78,19.03,28.72,24.4,9.95-.27,14.97-7.37,19.85-14.74,6.3-9.49,12.63-18.96,18.94-28.44,3.15-4.74,6.39-9.44,9.44-14.24,2.42-3.82,2.85-8.03,7.73-9.72-.06,1.03-.11,2.07-.15,3.11-.45,13.27,1.3,27.17,1.84,40.4.6,14.97,1.2,29.95,1.78,44.92.13,3.5-.03,7-.06,10.88-45.2-.35-89.42-.7-135.67-1.06,1.22-42.16,2.41-82.81,3.64-125.39Z"/>
    <path class="uuid-2a7c9b68-f280-4bf9-9c68-3f5c8ec5fea9" d="m599.64,1084.76c-5.85-2.51-9.1,2.03-12.71,5.78-4.15,4.31-8.29,8.62-12.43,12.92-4.16,4.33-8.32,8.66-12.48,12.98-1.4,1.45-12.09,10.7-11.71,12.17-2.11-8.09-3.73-14.31-5.38-20.63-4.1-.62-7.07-1.44-10.05-1.47-3.74-.03-7.49-.06-11.23-.1-24.96-.22-49.92-.41-74.89-.56-12.48-.07-24.96-.13-37.44-.17-5.05-.02-14.27-1.32-17.76,3.3-.78,1.03-1.27,2.35-1.37,4.05-1.45,24.57-2.35,49.18-2.97,73.78-.31,12.17-.54,24.34-.71,36.51-.08,5.67-.38,11.33-.54,16.99-.13,4.64-1.27,9.4-.31,14.03,1.27,6.14,7.88,7.23,13.48,7.31,48.11.69,96.25,2.12,144.36,1.82,10.68-.07,8.08-9.04,7.84-17.15-.31-10.45-.71-20.89-1.17-31.33-.88-20.14-1.97-40.27-2.92-60.41,15.82-16.64,30.81-31.99,45.24-47.84,4.56-5.01,15.24-17.66,5.14-21.99Zm-62.13,161.72c-12.31,2.86-122.76,1.15-133.29-1.96.32-40.47.63-80.82.95-120.8,11.84-3.68,91.23-4.54,127.04-1.62.55,3.13,1.4,6.49,1.67,9.89.28,3.55.01,7.14-.02,11.59-18.22,18.48-36.81,37.34-56.65,57.45-9.15-11.06-18.11-21.93-27.12-32.76-3.27-3.93-6.27-8.2-10.07-11.54-4.54-4-11.53-1.97-12.03,4.41-.33,4.2,2.88,9,4.95,12.39,4.78,7.81,10.74,14.77,16.55,21.82,7.52,9.12,16.52,20.84,27.51,26.03,8.02-.54,12.28-6.44,17.19-11.69,12.48-13.32,25.22-26.39,38.44-40.16,3.73,10.73,6.53,60.16,4.88,76.96Z"/>
    <path class="uuid-2a7c9b68-f280-4bf9-9c68-3f5c8ec5fea9" d="m646.45,1705.69c65.01-1.26,130.01-2.5,195.01-3.82,101.35-2.06,202.69-4.25,304.04-6.25,60.4-1.2,120.81-2.08,181.21-3.25,9.45-.18,18.89-.52,28.34-.88,6.96-.27,20.24,1.82,25.2-4.49,7.67-9.76-8.49-10.96-14.32-10.8-41.45,1.14-82.89,2.42-124.34,3.32-73.7,1.61-147.41,2.95-221.11,4.47-117.21,2.42-234.42,4.9-351.62,7.35-12.28.26-24.57.44-36.85.7-5.13.11-10.36.14-13.07,5.75-.14,6.43,4.25,7.73,9.09,7.93,6.13.25,12.29.09,18.43-.03Z"/>
    <path class="uuid-2a7c9b68-f280-4bf9-9c68-3f5c8ec5fea9" d="m645.63,877.92c10.96-.14,21.91-.28,32.87-.45,21.25-.31,42.49-.68,63.74-1.12,121.8-2.52,243.59-5.23,365.39-7.69,66.74-1.35,133.49-2.52,200.23-3.76,12.35-.23,24.7-.46,37.04-.69,10.09-.19,22,.89,31.71-2.34,2.72-.91,5.17-3.3,5.2-6.17.02-2-1.15-3.79-2.78-5-.76-.56-1.61-1.01-2.49-1.29-4.11-1.33-9.75-.67-14.06-.58-52.71,1.2-105.41,2.52-158.12,3.68-70.1,1.54-140.21,3-210.31,4.43-82.39,1.68-164.79,3.28-247.18,4.96-38.38.78-76.77,1.63-115.15,2.56-5.34.13-15.08.24-11.36,8.79,3.42,7.85,18.84,4.75,25.27,4.67Z"/>
    <path class="uuid-2a7c9b68-f280-4bf9-9c68-3f5c8ec5fea9" d="m641.89,950.7c110.1-.88,220.2-1.9,330.31-2.86,94.74-.82,189.48-1.6,284.22-2.48,5.55-.05,14.63.8,16.95-5.74.93-2.61.85-4.54.12-5.96-2.32-4.48-11.2-3.92-15.92-4.05-10.52-.29-21.04-.15-31.57-.16-24.65-.01-49.29.16-73.94.36-32.32.26-64.64.61-96.97,1-36.17.44-72.35.93-108.52,1.47-36.2.54-72.4,1.13-108.6,1.77-32.41.57-64.81,1.19-97.21,1.89-24.79.53-49.58,1.1-74.36,1.84-8.21.24-16.41.5-24.62.83-4.72.19-20.67-1.29-16.88,7.47,2.36,5.46,12.36,4.64,16.99,4.61Z"/>
    <path class="uuid-2a7c9b68-f280-4bf9-9c68-3f5c8ec5fea9" d="m1381.35,1124.72c-3.52-7.13-9.6-5.92-15.1-5.8-20.99.47-41.98,1.22-62.97,1.65-114.18,2.36-228.37,4.7-342.55,6.95-55.82,1.1-111.63,1.95-167.45,3.03-5.21.1-12.33-1.8-14.78,4.56-1.14,2.94-.94,5.06.11,6.59,3.57,5.18,17.05,3.44,21.96,3.35,75.27-1.42,150.54-2.89,225.81-4.4,106.5-2.14,213-4.34,319.5-6.49,8.19-.16,16.39-.03,24.58-.25,6.25-.17,10.95-2.33,10.88-9.2Z"/>
    <path class="uuid-2a7c9b68-f280-4bf9-9c68-3f5c8ec5fea9" d="m553.22,1755.1c-1.18-24.3-2.55-48.6-3.34-72.92-.08-2.47-.47-4.93-.94-7.35-.35-1.79-.45-5.32-1.47-6.82-1.94-2.86-8.67-2.37-11.52-2.58-11.36-.81-22.77-1.07-34.15-1.29-14.29-.27-28.58-.33-42.87-.25-13.02.08-26.05.26-39.06.75-4.73.18-9.47.39-14.19.74-4.32.32-9.24-.1-10.34,5.27-.41,2.04-.68,4.1-.9,6.16-.42,4.11-.56,8.25-.87,12.37-1.01,13.29-1.65,26.6-2.16,39.92-.56,14.61-.94,29.23-1.06,43.85-.1,11.47-.16,22.98.49,34.44.07,1.25.15,2.5.25,3.75.1,1.24-.18,3.67.43,4.58.18.27.42.5.68.7.25.19.51.35.79.49,4.7,2.49,11.21,1.98,16.35,2.1,6.24.15,12.48.31,18.73.46,12.49.31,24.98.63,37.46.88,24.95.51,49.91.81,74.87.45,1.12-.02,2.24-.03,3.36-.05,2.18-.04,4.38-.08,6.48-.66,9.27-2.57,4.79-20.94,4.54-28.45-.41-12.2-.96-24.39-1.55-36.58Zm-147.14,49.14c.33-42.22.65-82.98.99-125.65,43-.69,84.73-.08,127.89-.11,1.88,42.98,3.69,84.62,5.53,126.81-46.25-.36-90.12-.71-134.41-1.05Z"/>
    <path class="uuid-2a7c9b68-f280-4bf9-9c68-3f5c8ec5fea9" d="m816.27,1483.32c-8.66.07-17.32.15-25.98.24-4.87.05-15.13-1.32-17.2,4.96-.91,2.77.34,5.97,2.63,7.77.43.34.9.63,1.41.89,4.32,2.16,10.97,1.31,15.4,1.26,33.26-.35,66.52-.82,99.78-1.11,101.33-.88,202.67-1.67,304.01-2.57,19.44-.17,38.88-.68,58.32-1.01,6.36-.11,12.6-.31,13.03-9.01-3.1-7.36-9.46-6.77-15.63-6.64-17.91.38-35.81.89-53.72,1.1-110.03,1.26-220.06,2.48-330.08,3.66-17.32.19-34.64.31-51.97.45Z"/>
    <path class="uuid-2a7c9b68-f280-4bf9-9c68-3f5c8ec5fea9" d="m628.62,1426.66c26.1-.54,52.19-1.25,78.29-1.74,79.33-1.51,158.66-2.98,238-4.41,33.06-.59,66.12-1.14,99.18-1.7,16.7-.28,33.39-.57,50.09-.87,5.94-.11,36.06,3.41,32.24-9.6-.45-1.55-1.41-2.68-2.7-3.51-5.03-3.23-15.13-1.77-20.08-1.8-10.09-.06-20.19-.02-30.28.06-28.6.21-57.2.67-85.79,1.2-35.05.64-70.1,1.42-105.15,2.28-35.79.87-71.58,1.84-107.36,2.91-30.81.93-61.62,1.92-92.43,3.11-20.12.78-40.26,1.51-60.35,2.88-4.15.28-14.31-.98-11.68,6.6,2.24,6.44,13.05,4.71,18.02,4.61Z"/>
    <path class="uuid-2a7c9b68-f280-4bf9-9c68-3f5c8ec5fea9" d="m639.76,1220.9c56.79-.47,113.58-1,170.36-1.49,89.53-.76,179.07-1.46,268.6-2.27,6.97-.06,39.4,3.75,35.32-9.99-.39-1.3-1.07-2.31-1.95-3.09-3.29-2.89-9.35-2.58-13.3-2.53-7.66.08-15.33.18-22.99.27-15.33.18-30.66.37-45.98.55-30.66.37-61.31.74-91.97,1.08-77.25.86-154.5,1.6-231.75,2.5-24.04.28-48.07.89-72.1,1.5-4.67.12-12.65,1.1-10.67,8.19,1.81,6.48,11.54,5.3,16.43,5.26Z"/>
    <path class="uuid-2a7c9b68-f280-4bf9-9c68-3f5c8ec5fea9" d="m996.47,608.95c1.62,17.3,1.9,34.73,2.7,52.1.28,6.17-.16,12.63,8.26,14.44,7.04-2.13,6.87-7.95,6.58-13.63-1.24-24-2.34-48.02-4.01-72-.92-13.15-2.89-26.23-4.38-39.34,4.09,3.17,6.54,6.85,8.52,10.77,16.31,32.42,32.53,64.88,48.76,97.33,2.29,4.57,5.1,13.62,11.29,13.55,9.32-.1,7.61-12.08,7.33-17.98-1.76-36.78-3.37-73.57-4.66-110.37-.36-10.44-.04-20.86.08-31.3.06-4.89-.54-13.94-8.31-11.76-8.25,2.31-4.43,19.1-4.56,25.15-.23,10.71-.44,21.41-.66,32.12-.43,21.68-.84,43.35-1.25,65.03-1.39-2.31-2.48-3.93-3.39-5.65-16.7-31.64-33.28-63.35-50.16-94.89-2.75-5.13-4.83-11.64-12.92-12.16-10.84,6.55-8.83,16.85-7.59,27.02,2.9,23.85,6.13,47.67,8.37,71.58Z"/>
    <path class="uuid-2a7c9b68-f280-4bf9-9c68-3f5c8ec5fea9" d="m1279,1764.87c1.29-5.24-10.97-7.65-15.42-7.58-30.68.41-61.37,1.01-92.05,1.32-82.35.81-164.7,1.49-247.05,2.28-5.74.05-16.4,1.21-13.11,10.1,2.02,5.48,9.74,5.31,14.48,5.25,28.13-.36,56.25-.92,84.38-1.18,66.74-.63,133.48-1.19,200.21-1.78,13.01-.11,26.03-.23,39.04-.35,8.37-.08,20.18,1.28,27.07-4.67,1.43-1.24,2.2-2.36,2.45-3.38Z"/>
    <path class="uuid-2a7c9b68-f280-4bf9-9c68-3f5c8ec5fea9" d="m868.77,676.22c1.48-.05,3.02-.62,4.37-1.65,3.85-2.93,4.87-12.06,6.3-16.85,4.04-13.52,7.97-27.06,11.93-40.6,12.64-1.66,25.1-3.3,37.33-4.91,2.33-.31,8.99,29.65,9.89,32.69,2.13,7.23,4.16,16.09,9.31,21.85,3.16,3.52,7.63,4.73,10.31-.03,2.65-4.7-.37-9.9-1.65-14.52-1.37-4.94-2.75-9.88-4.12-14.82-2.58-9.29-5.13-18.59-7.56-27.93-8.01-30.83-19.26-60.4-34.13-88.56-3.06-5.79-5.72-12.26-14.78-14.1-8.32,5.95-8.9,14.71-10.1,23.3-4.26,30.39-8.32,60.81-13.14,91.1-2.16,13.61-6.14,26.91-8.92,40.43-.73,3.56-1.92,7.66-.38,11.17,1.05,2.4,3.12,3.48,5.34,3.4Zm30.82-139.46c1.03-.25,2.05-.49,3.08-.73,8.46,19.85,17.44,39.51,22.86,61.78-10.97,1.42-20.85,2.69-32.2,4.16,2.19-22.81,4.23-44.01,6.27-65.21Z"/>
    <path class="uuid-2a7c9b68-f280-4bf9-9c68-3f5c8ec5fea9" d="m635.14,572.85c-.66,28.12-1.42,56.23-2.2,84.34-.18,6.46-.16,12.59,10.43,12.8,9.27-14.53,4.22-32.33,9.29-49.15,8.48-2.72,17.65-5.59,26.79-8.59,14.13-4.64,25.31-13.15,33.09-25.89,12.5-20.5,9.78-45.98-6.54-62.1-11.33-11.2-28.18-16.07-43.84-13.95-6.88.93-15.95,3.17-20.84,8.36-5.7,6.04-6.08,15.62-5.9,23.39.24,10.23-.03,20.55-.27,30.78Zm17.49-44.2c11.39-4.01,21.42-4.52,31.17-.31,25.31,10.94,27.79,44.37,4.52,61.17-10.46,7.55-22.63,11-36.27,13.74.2-25.06.39-49.31.58-74.6Z"/>
    <path class="uuid-2a7c9b68-f280-4bf9-9c68-3f5c8ec5fea9" d="m1179.49,2137.86c-44.01,1.37-88,3.28-132.02,4.38-49.65,1.24-99.33,1.81-148.99,2.7-3.58.06-7.4-.41-10.66.69-2.79.94-5.41,3.84-6,6.88-.34,1.78,0,3.61,1.43,5.13,3.04,3.25,9.36,2.26,13.25,2.18,77.81-1.62,155.63-3.32,233.44-5.1,16.89-.39,33.77-1.18,50.65-1.8,6.2-.23,12.58-.19,15.03-7.93-2.27-9.25-9.86-7.32-16.13-7.13Z"/>
    <path class="uuid-2a7c9b68-f280-4bf9-9c68-3f5c8ec5fea9" d="m886.66,1772.17c.98-2.89.19-6.45-2.05-8.54-4.06-3.79-8.62-1.94-13.4-1.77-3.91.15-7.87-.58-11.84-.51-11.29.21-22.57.4-33.86.58-22.24.36-44.49.68-66.73,1.01-40.46.61-80.91,1.15-121.37,1.82-4.07.07-13.6,1.17-15.26,5.78-.34.95-.44,1.79-.32,2.54.92,6.07,15.37,5.9,19.28,5.83,12.63-.23,25.28-.25,37.91-.38,66.23-.68,132.45-1.43,198.68-2.2,3.93-.04,7.57-.03,8.96-4.16Z"/>
    <path class="uuid-2a7c9b68-f280-4bf9-9c68-3f5c8ec5fea9" d="m764.38,681.14c9.67.85,20.35-.23,28.97-.15,9.99.1,19.98.1,29.98.1,4.6,0,10.73,1.1,14.96-1.19,2.79-1.52,2.88-2.66,2.76-5.6-.24-6.15-6.61-6.07-11.82-6.91-22.65-3.66-46.1,2.15-68.37-4.6.06-7.66-.06-14.2.19-20.73,1.36-36.26,2.88-72.51,4.14-108.78.14-3.99-.79-8.07-1.65-12.02-2.21-10.22-12.75,2.89-13,7.96-1.97,39.3-4.09,78.59-5.73,117.9-.28,6.63,1.36,13.3.97,19.87-.34,5.73.33,9.22,6.64,11.65,3.61,1.39,7.69,2.14,11.96,2.51Z"/>
    <path class="uuid-2a7c9b68-f280-4bf9-9c68-3f5c8ec5fea9" d="m1365.91,1412.14c3.1-.87,5.99-3.12,6.78-6.24,3.28-13.05-29.58-7.83-36.13-7.73-16.34.24-32.67.53-49.01.85-32.89.65-65.78,1.44-98.67,2.25-8.84.21-17.69.44-26.53.65-6.02.15-20.57-2.94-19.7,6.66.25,2.72,1.42,4.47,3.11,5.59,3.25,2.17,8.39,2,12.29,1.94,66.02-1.04,132.12-1.46,198.09-3.45,3.2-.1,6.62.37,9.78-.52Z"/>
    <path class="uuid-2a7c9b68-f280-4bf9-9c68-3f5c8ec5fea9" d="m1463.48,2137.38c-4.53-.58-9.18-.35-13.77-.23-55.18,1.46-110.36,2.95-165.53,4.49-3.57.1-10.14-.59-11.34,3.38-.33,1.1-.38,2.43-.18,3.77.4,2.72,1.81,5.5,3.84,6.68,3.29,1.9,8.97,1.09,12.59,1,50.04-1.28,100.07-2.63,150.1-4.19,8.27-.26,17.12,1.67,25.07-1.38,4.22-1.62,6.28-3.81,5.06-8.57-.76-2.96-2.84-4.56-5.85-4.95Z"/>
    <path class="uuid-2a7c9b68-f280-4bf9-9c68-3f5c8ec5fea9" d="m252.22,2046.88c-1.07-1.13-2.61-1.48-4.13-1.26-1.58.23-3.15,1.08-4.16,2.33-3.6,4.49-2.52,12.84-2.62,18.2-.61,30.67-1.18,61.33-1.6,92-.14,10.22.03,20.45.39,30.67.2,5.64.99,11.35,7.93,12.28,6.06-2.56,5.66-7.1,5.63-11.83-.07-9.19.4-18.39.51-27.58.24-19.21.51-38.42.71-57.63.1-9.6.19-19.21.24-28.82.04-7.55-1.5-14.54-1.36-22.06.04-2.22-.01-4.69-1.54-6.3Z"/>
    <path class="uuid-2a7c9b68-f280-4bf9-9c68-3f5c8ec5fea9" d="m1138.24,1213.26c6.73,4.8,22.45,2.21,28.67,2.27,12.15.11,24.3.2,36.44.24,19.46.06,38.93-.08,58.39-.16,6.82-.03,13.59-.22,15.14-8.78-2.5-7.28-8.1-7.23-13.94-7.15-27.14.37-54.28.59-81.43.91-10.3.12-20.61.26-30.91.45-5.29.1-19.7-.95-14.79,9.39.54,1.15,1.37,2.07,2.42,2.82Z"/>
    <path class="uuid-2a7c9b68-f280-4bf9-9c68-3f5c8ec5fea9" d="m625.39,1499.85c28.68-.07,57.36-.15,86.04-.47,7.53-.09,15.05-.44,22.57-.81,5.24-.25,17.39,1.25,17.7-6.84.13-3.26-1.72-5.07-4.43-6.03-5.25-1.87-13.75-.57-17.47-.61-9.85-.11-19.71-.21-29.56-.16-24.58.12-49.17.39-73.75.74-5.99.09-12.73-.71-14.79,7.45,2.01,7.58,8.18,6.74,13.69,6.72Z"/>
    <path class="uuid-2a7c9b68-f280-4bf9-9c68-3f5c8ec5fea9" d="m622.42,1144.82c3.86,4.33,10.76,2.68,15.89,2.64,6.59-.05,13.17-.07,19.76-.1,12.84-.05,25.69-.08,38.53-.23,11.62-.14,23.25-.36,34.87-.77,5.96-.21,23.22,1.83,23.27-8.08,0-1.29-.29-2.34-.82-3.19-3.6-5.74-17.98-2.47-23.11-2.38-11.34.21-22.69.42-34.03.64-16.69.32-33.38.65-50.07,1-6.2.13-13.88-1.11-19.93.05-4.7.9-8.09,6.21-4.36,10.4Z"/>
    <path class="uuid-2a7c9b68-f280-4bf9-9c68-3f5c8ec5fea9" d="m247.03,2005.68c7.18,1.35,6.35-6.41,6.62-10.99.39-6.74.73-13.49.88-20.24.31-13.4.04-26.9-2.03-40.18-.31-1.99-1.46-3.97-3.34-4.7-.72-.28-1.39-.35-2-.23-7.45,1.49-7.19,30.63-7.26,35.1-.12,7.4-2.71,39.4,7.13,41.24Z"/>
  </g>
</svg>