<?xml version="1.0" encoding="utf-8"?>
<!-- Generator: Adobe Illustrator 27.5.0, SVG Export Plug-In . SVG Version: 6.00 Build 0)  -->
<svg version="1.1" id="Layer_1" xmlns="http://www.w3.org/2000/svg" xmlns:xlink="http://www.w3.org/1999/xlink" x="0px" y="0px"
	 viewBox="0 0 368.644 436.256" style="enable-background:new 0 0 368.644 436.256;" xml:space="preserve">
<g>
	<g>
		<path style="fill:#C2CAD3;" d="M332.871,429.712H35.774c-16.703,0-30.244-13.541-30.244-30.244V49.302
			c0-16.703,13.541-30.244,30.244-30.244h297.097c16.703,0,30.244,13.541,30.244,30.244v350.166
			C363.114,416.171,349.574,429.712,332.871,429.712z"/>
		<rect x="25.49" y="55.97" style="fill:#72787E;" width="317.663" height="349.433"/>
		<rect x="29.594" y="60.007" style="fill:#FFFDED;" width="309.455" height="340.404"/>
		<path style="fill:#4D7DBF;" d="M234.042,92.991h-99.44c-12.135,0-22.008-8.607-22.008-19.185v-34.99
			c0-10.578,9.872-19.185,22.008-19.185h99.44c12.135,0,22.008,8.607,22.008,19.185v34.99
			C256.05,84.384,246.177,92.991,234.042,92.991z M134.602,27.637c-7.72,0-14.002,5.015-14.002,11.179v34.99
			c0,6.164,6.282,11.179,14.002,11.179h99.44c7.72,0,14.002-5.015,14.002-11.179v-34.99c0-6.164-6.282-11.179-14.002-11.179H134.602
			z"/>
		<rect x="133.746" y="6.544" style="fill:#355162;" width="101.152" height="42.031"/>
		<path style="fill:#8DA1A3;" d="M313.907,156.268H94.848c-1.263,0-2.287-1.024-2.287-2.288c0-1.263,1.024-2.287,2.287-2.287
			h219.058c1.263,0,2.287,1.024,2.287,2.287C316.194,155.243,315.17,156.268,313.907,156.268z"/>
		<path style="fill:#8DA1A3;" d="M313.907,219.374H94.848c-1.263,0-2.287-1.024-2.287-2.287c0-1.263,1.024-2.287,2.287-2.287
			h219.058c1.263,0,2.287,1.024,2.287,2.287C316.194,218.35,315.17,219.374,313.907,219.374z"/>
		<path style="fill:#8DA1A3;" d="M313.907,282.481H94.848c-1.263,0-2.287-1.024-2.287-2.288c0-1.263,1.024-2.287,2.287-2.287
			h219.058c1.263,0,2.287,1.024,2.287,2.287C316.194,281.457,315.17,282.481,313.907,282.481z"/>
		<path style="fill:#8DA1A3;" d="M313.907,345.588H94.848c-1.263,0-2.287-1.024-2.287-2.287c0-1.263,1.024-2.288,2.287-2.288
			h219.058c1.263,0,2.287,1.024,2.287,2.288C316.194,344.563,315.17,345.588,313.907,345.588z"/>
		<rect x="44.659" y="131.778" style="fill:#C9E6D5;" width="29.064" height="29.064"/>
		<rect x="44.659" y="194.347" style="fill:#C9E6D5;" width="29.064" height="29.064"/>
		<rect x="44.659" y="256.915" style="fill:#C9E6D5;" width="29.064" height="29.064"/>
		<rect x="44.659" y="319.484" style="fill:#C9E6D5;" width="29.064" height="29.064"/>
	</g>
	<g>
		<path style="fill:#60A63D;" d="M60.402,156.132c-0.049,0-0.097-0.001-0.146-0.002c-1.311-0.042-2.542-0.646-3.379-1.656
			l-9.688-11.706c-1.611-1.946-1.338-4.83,0.609-6.441c1.943-1.609,4.828-1.339,6.441,0.609l6.384,7.715l29.145-30.943
			c1.731-1.84,4.626-1.927,6.467-0.194c1.84,1.732,1.927,4.629,0.194,6.467l-32.697,34.715
			C62.866,155.613,61.661,156.132,60.402,156.132z"/>
	</g>
	<g>
		<path style="fill:#60A63D;" d="M60.402,218.835c-0.049,0-0.097-0.001-0.146-0.002c-1.311-0.042-2.542-0.646-3.379-1.656
			l-9.688-11.707c-1.611-1.946-1.338-4.83,0.609-6.441c1.943-1.611,4.828-1.338,6.441,0.609l6.384,7.715l29.145-30.943
			c1.731-1.839,4.626-1.927,6.467-0.194c1.84,1.732,1.927,4.629,0.194,6.467l-32.697,34.715
			C62.866,218.316,61.661,218.835,60.402,218.835z"/>
	</g>
	<g>
		<path style="fill:#60A63D;" d="M60.402,281.54c-0.049,0-0.097-0.001-0.146-0.002c-1.311-0.042-2.542-0.646-3.379-1.656
			l-9.688-11.707c-1.611-1.946-1.338-4.83,0.609-6.441c1.943-1.609,4.828-1.339,6.441,0.609l6.384,7.715l29.145-30.944
			c1.731-1.84,4.626-1.927,6.467-0.194c1.84,1.732,1.927,4.629,0.194,6.467l-32.697,34.716
			C62.867,281.02,61.661,281.54,60.402,281.54z"/>
	</g>
	<g>
		<path style="fill:#60A63D;" d="M60.402,344.243c-0.049,0-0.097-0.001-0.146-0.002c-1.311-0.042-2.542-0.646-3.379-1.656
			l-9.688-11.707c-1.611-1.946-1.338-4.83,0.609-6.441c1.943-1.609,4.828-1.339,6.441,0.609l6.384,7.715l29.145-30.944
			c1.731-1.84,4.626-1.927,6.467-0.194c1.84,1.732,1.927,4.629,0.194,6.467l-32.697,34.716
			C62.867,343.724,61.661,344.243,60.402,344.243z"/>
	</g>
</g>
</svg>
